<?xml version="1.0" encoding="utf-8"?>
<!-- Generator: Adobe Illustrator 23.0.6, SVG Export Plug-In . SVG Version: 6.00 Build 0)  -->
<svg version="1.1" id="Layer_1" xmlns="http://www.w3.org/2000/svg" xmlns:xlink="http://www.w3.org/1999/xlink" x="0px" y="0px"
	 viewBox="0 0 48 48" style="enable-background:new 0 0 48 48;" xml:space="preserve">
<style type="text/css">
	.st0{fill:#FF9800;}
</style>
<title>Announcement</title>
<path class="st0" d="M37,15v12c3.3-2.5,4-7.2,1.5-10.5C38.1,15.9,37.6,15.4,37,15z"/>
<path class="st0" d="M14.9,32H9v7c0,1.7,1.3,3,3,3h1c1.7,0,3-1.3,3-3v-7C15.6,32,15.3,32,14.9,32z"/>
<path class="st0" d="M32,6h-1.4c-0.6,0-1.2,0.2-1.7,0.5l-3.5,2.3c-3.1,2.1-6.8,3.2-10.5,3.2H14v18h0.9c3.8,0,7.4,1.1,10.5,3.2
	l3.5,2.3c0.5,0.3,1.1,0.5,1.7,0.5H32c1.7,0,3-1.3,3-3V9C35,7.3,33.7,6,32,6z"/>
<path class="st0" d="M12,12H7c-2.8,0-5,2.2-5,5v8c0,2.8,2.2,5,5,5h5V12z"/>
<path class="st0" d="M46,22h-3c-0.6,0-1-0.4-1-1s0.4-1,1-1h3c0.6,0,1,0.4,1,1S46.6,22,46,22z"/>
<path class="st0" d="M41.6,16.8c-0.6,0-1-0.4-1-1c0-0.4,0.2-0.7,0.5-0.9l2.6-1.5c0.5-0.3,1.1-0.1,1.4,0.4c0.3,0.5,0.1,1.1-0.4,1.4
	c0,0,0,0,0,0l-2.6,1.5C41.9,16.7,41.8,16.8,41.6,16.8z"/>
<path class="st0" d="M44.2,28.8c-0.2,0-0.3,0-0.5-0.1l-2.6-1.5c-0.5-0.3-0.6-0.9-0.4-1.4c0.3-0.5,0.9-0.6,1.4-0.4l2.6,1.5
	c0.5,0.3,0.6,0.9,0.4,1.4C44.9,28.6,44.5,28.7,44.2,28.8z"/>
</svg>
