<svg xmlns="http://www.w3.org/2000/svg" xmlns:xlink="http://www.w3.org/1999/xlink" viewBox="0 0 3710 3710"><defs><style>.cls-1{isolation:isolate;}.cls-2,.cls-36,.cls-6{fill:#fff;}.cls-3{fill:url(#linear-gradient);}.cls-4{fill:#bdd0fb;}.cls-5{opacity:0.52;}.cls-6{mix-blend-mode:overlay;}.cls-7{fill:url(#linear-gradient-2);}.cls-8{fill:url(#linear-gradient-3);}.cls-9{fill:url(#linear-gradient-4);}.cls-10{fill:url(#linear-gradient-5);}.cls-11{fill:url(#linear-gradient-6);}.cls-12{fill:url(#linear-gradient-7);}.cls-13{fill:url(#linear-gradient-8);}.cls-14{fill:url(#linear-gradient-9);}.cls-15{fill:url(#linear-gradient-10);}.cls-16{fill:url(#linear-gradient-11);}.cls-17{fill:url(#linear-gradient-12);}.cls-18{fill:url(#linear-gradient-13);}.cls-19{fill:url(#linear-gradient-14);}.cls-20{fill:url(#linear-gradient-15);}.cls-21{fill:url(#linear-gradient-16);}.cls-22{fill:url(#linear-gradient-17);}.cls-23{fill:url(#linear-gradient-18);}.cls-24{fill:url(#linear-gradient-19);}.cls-25{fill:url(#linear-gradient-20);}.cls-26{fill:url(#linear-gradient-21);}.cls-27{fill:url(#linear-gradient-22);}.cls-28{fill:url(#linear-gradient-23);}.cls-29{fill:url(#linear-gradient-24);}.cls-30{fill:url(#linear-gradient-25);}.cls-31{fill:url(#linear-gradient-26);}.cls-32{fill:url(#linear-gradient-27);}.cls-33{fill:url(#linear-gradient-28);}.cls-34{opacity:0.5;}.cls-35{fill:#91b3fa;}.cls-36{opacity:0.57;}.cls-37{fill:#7d97f4;}.cls-38{fill:url(#linear-gradient-29);}.cls-39{fill:url(#linear-gradient-30);}.cls-40{fill:url(#linear-gradient-31);}.cls-41{fill:url(#linear-gradient-32);}.cls-42{fill:url(#linear-gradient-33);}.cls-43{fill:url(#linear-gradient-34);}.cls-44{fill:url(#linear-gradient-35);}.cls-45{fill:url(#linear-gradient-36);}.cls-46{fill:url(#linear-gradient-37);}.cls-47{fill:url(#linear-gradient-38);}.cls-48{fill:url(#linear-gradient-39);}.cls-49{fill:url(#linear-gradient-40);}.cls-50{fill:url(#linear-gradient-41);}.cls-51{fill:url(#linear-gradient-42);}.cls-52{fill:url(#linear-gradient-43);}.cls-53{fill:url(#linear-gradient-44);}.cls-54{fill:url(#linear-gradient-45);}.cls-55{fill:url(#linear-gradient-46);}.cls-56{fill:url(#linear-gradient-47);}.cls-57{fill:url(#linear-gradient-48);}.cls-58{fill:url(#linear-gradient-49);}.cls-59{fill:url(#linear-gradient-50);}.cls-60{fill:url(#linear-gradient-51);}.cls-61{fill:url(#linear-gradient-52);}.cls-62{fill:url(#linear-gradient-53);}.cls-63{fill:url(#linear-gradient-54);}.cls-64{fill:url(#linear-gradient-55);}.cls-65{fill:url(#linear-gradient-56);}.cls-66{opacity:0.3;}</style><linearGradient id="linear-gradient" x1="3573.92" y1="4029.53" x2="1127.39" y2="991.09" gradientUnits="userSpaceOnUse"><stop offset="0" stop-color="#dae3fe"/><stop offset="1" stop-color="#e9effd"/></linearGradient><linearGradient id="linear-gradient-2" x1="1028.83" y1="1857.84" x2="1239.31" y2="1857.84" xlink:href="#linear-gradient"/><linearGradient id="linear-gradient-3" x1="794.77" y1="1857.82" x2="1004.81" y2="1857.82" xlink:href="#linear-gradient"/><linearGradient id="linear-gradient-4" x1="560.94" y1="1857.79" x2="770.55" y2="1857.79" xlink:href="#linear-gradient"/><linearGradient id="linear-gradient-5" x1="1026.22" y1="2010.97" x2="1236.33" y2="2010.97" xlink:href="#linear-gradient"/><linearGradient id="linear-gradient-6" x1="792.57" y1="2010.87" x2="1002.24" y2="2010.87" xlink:href="#linear-gradient"/><linearGradient id="linear-gradient-7" x1="559.15" y1="2010.78" x2="768.38" y2="2010.78" xlink:href="#linear-gradient"/><linearGradient id="linear-gradient-8" x1="1023.62" y1="2162.78" x2="1233.36" y2="2162.78" xlink:href="#linear-gradient"/><linearGradient id="linear-gradient-9" x1="790.37" y1="2162.6" x2="999.68" y2="2162.6" xlink:href="#linear-gradient"/><linearGradient id="linear-gradient-10" x1="557.36" y1="2162.43" x2="766.23" y2="2162.43" xlink:href="#linear-gradient"/><linearGradient id="linear-gradient-11" x1="1021.03" y1="2314.06" x2="1230.4" y2="2314.06" xlink:href="#linear-gradient"/><linearGradient id="linear-gradient-12" x1="788.19" y1="2313.81" x2="997.13" y2="2313.81" xlink:href="#linear-gradient"/><linearGradient id="linear-gradient-13" x1="555.58" y1="2313.56" x2="764.08" y2="2313.56" xlink:href="#linear-gradient"/><linearGradient id="linear-gradient-14" x1="1018.45" y1="2464.81" x2="1227.45" y2="2464.81" xlink:href="#linear-gradient"/><linearGradient id="linear-gradient-15" x1="786.01" y1="2464.49" x2="994.58" y2="2464.49" xlink:href="#linear-gradient"/><linearGradient id="linear-gradient-16" x1="553.8" y1="2464.16" x2="761.94" y2="2464.16" xlink:href="#linear-gradient"/><linearGradient id="linear-gradient-17" x1="1015.88" y1="2615.05" x2="1224.52" y2="2615.05" xlink:href="#linear-gradient"/><linearGradient id="linear-gradient-18" x1="783.84" y1="2614.65" x2="992.05" y2="2614.65" xlink:href="#linear-gradient"/><linearGradient id="linear-gradient-19" x1="552.03" y1="2614.25" x2="759.81" y2="2614.25" xlink:href="#linear-gradient"/><linearGradient id="linear-gradient-20" x1="1013.31" y1="2764.76" x2="1221.59" y2="2764.76" xlink:href="#linear-gradient"/><linearGradient id="linear-gradient-21" x1="781.67" y1="2764.29" x2="989.52" y2="2764.29" xlink:href="#linear-gradient"/><linearGradient id="linear-gradient-22" x1="550.26" y1="2763.82" x2="757.69" y2="2763.82" xlink:href="#linear-gradient"/><linearGradient id="linear-gradient-23" x1="1010.76" y1="2913.97" x2="1218.67" y2="2913.97" xlink:href="#linear-gradient"/><linearGradient id="linear-gradient-24" x1="779.52" y1="2913.42" x2="987" y2="2913.42" xlink:href="#linear-gradient"/><linearGradient id="linear-gradient-25" x1="548.51" y1="2912.88" x2="755.57" y2="2912.88" xlink:href="#linear-gradient"/><linearGradient id="linear-gradient-26" x1="1008.21" y1="3062.66" x2="1215.76" y2="3062.66" xlink:href="#linear-gradient"/><linearGradient id="linear-gradient-27" x1="777.37" y1="3062.04" x2="984.5" y2="3062.04" xlink:href="#linear-gradient"/><linearGradient id="linear-gradient-28" x1="546.75" y1="3061.42" x2="753.46" y2="3061.42" xlink:href="#linear-gradient"/><linearGradient id="linear-gradient-29" x1="2711.23" y1="-790.18" x2="2107.13" y2="2733.77" gradientUnits="userSpaceOnUse"><stop offset="0" stop-color="#4042e2"/><stop offset="1" stop-color="#4f52ff"/></linearGradient><linearGradient id="linear-gradient-30" x1="1681.94" y1="2121.9" x2="2750.16" y2="2121.9" xlink:href="#linear-gradient-29"/><linearGradient id="linear-gradient-31" x1="2329.3" y1="944.24" x2="2654.29" y2="194.26" gradientTransform="translate(1463.66 -1253.01) rotate(45)" gradientUnits="userSpaceOnUse"><stop offset="0" stop-color="#09005d"/><stop offset="1" stop-color="#1a0f91"/></linearGradient><linearGradient id="linear-gradient-32" x1="2358.84" y1="1430.09" x2="1627.45" y2="6499.4" gradientUnits="userSpaceOnUse"><stop offset="0" stop-color="#febbba"/><stop offset="1" stop-color="#ff928e"/></linearGradient><linearGradient id="linear-gradient-33" x1="2339.66" y1="1427.33" x2="1608.27" y2="6496.63" xlink:href="#linear-gradient-32"/><linearGradient id="linear-gradient-34" x1="2381.42" y1="2006.62" x2="3453.61" y2="-125.15" gradientUnits="userSpaceOnUse"><stop offset="0" stop-color="#fe7062"/><stop offset="1" stop-color="#ff928e"/></linearGradient><linearGradient id="linear-gradient-35" x1="-1483.02" y1="3175.36" x2="-1364.41" y2="3175.36" gradientTransform="translate(2420.6)" xlink:href="#linear-gradient-31"/><linearGradient id="linear-gradient-36" x1="-1450.03" y1="3040.34" x2="-1472.69" y2="3238.05" gradientTransform="translate(2420.6)" xlink:href="#linear-gradient-32"/><linearGradient id="linear-gradient-37" x1="-1302.42" y1="3178.37" x2="-1131.69" y2="3178.37" gradientTransform="translate(2420.6)" xlink:href="#linear-gradient-31"/><linearGradient id="linear-gradient-38" x1="-1158.21" y1="2928.46" x2="-1180.86" y2="3126.18" gradientTransform="translate(2123.7 65.77) rotate(-3.61)" xlink:href="#linear-gradient-32"/><linearGradient id="linear-gradient-39" x1="-1281.69" y1="3226.86" x2="-1047.2" y2="2108.71" gradientTransform="matrix(-1, 0, 0, 1, -160.96, 0)" xlink:href="#linear-gradient-31"/><linearGradient id="linear-gradient-40" x1="1360.22" y1="1699.07" x2="842.09" y2="2270.68" xlink:href="#linear-gradient-29"/><linearGradient id="linear-gradient-41" x1="1259.49" y1="1730.81" x2="504.21" y2="3117.07" xlink:href="#linear-gradient-29"/><linearGradient id="linear-gradient-42" x1="-1359.65" y1="1887.96" x2="-1307.04" y2="1744.28" gradientTransform="translate(2420.6)" xlink:href="#linear-gradient-32"/><linearGradient id="linear-gradient-43" x1="1106.48" y1="1424.83" x2="1082.03" y2="1611.51" xlink:href="#linear-gradient-29"/><linearGradient id="linear-gradient-44" x1="1149.23" y1="1430.43" x2="1124.79" y2="1617.1" xlink:href="#linear-gradient-29"/><linearGradient id="linear-gradient-45" x1="-1230.33" y1="1672.43" x2="-1543.83" y2="1922.12" gradientTransform="translate(2420.6)" xlink:href="#linear-gradient-32"/><linearGradient id="linear-gradient-46" x1="-1351.36" y1="1590.29" x2="-1207.67" y2="1775.29" gradientTransform="translate(2420.6)" xlink:href="#linear-gradient-31"/><linearGradient id="linear-gradient-47" x1="-1261.88" y1="1658.75" x2="-1416.17" y2="1776.8" gradientTransform="translate(2420.6)" xlink:href="#linear-gradient-32"/><linearGradient id="linear-gradient-48" x1="-1684.83" y1="1736.74" x2="-1358.17" y2="2018.92" gradientTransform="matrix(-1, 0, 0, 1, -160.96, 0)" xlink:href="#linear-gradient-32"/><linearGradient id="linear-gradient-49" x1="-1691.64" y1="1763.05" x2="-1373.67" y2="2037.72" gradientTransform="matrix(-1, 0, 0, 1, -160.96, 0)" xlink:href="#linear-gradient-32"/><linearGradient id="linear-gradient-50" x1="-1696.92" y1="1750.74" x2="-1370.26" y2="2032.91" gradientTransform="matrix(-1, 0, 0, 1, -160.96, 0)" xlink:href="#linear-gradient-32"/><linearGradient id="linear-gradient-51" x1="527.5" y1="1846.21" x2="-61.15" y2="3081.1" gradientTransform="translate(-758.49 793.55) rotate(-62.63)" gradientUnits="userSpaceOnUse"><stop offset="0" stop-color="#e1473d"/><stop offset="1" stop-color="#e9605a"/></linearGradient><linearGradient id="linear-gradient-52" x1="4105.23" y1="0.99" x2="3760.26" y2="687.37" gradientTransform="translate(-1955.44 2439.33) rotate(-15.16)" xlink:href="#linear-gradient-34"/><linearGradient id="linear-gradient-53" x1="81.22" y1="2178.5" x2="590.69" y2="3373.43" gradientTransform="translate(-758.49 793.55) rotate(-62.63)" gradientUnits="userSpaceOnUse"><stop offset="0" stop-color="#ff9085"/><stop offset="1" stop-color="#fb6fbb"/></linearGradient><linearGradient id="linear-gradient-54" x1="1802.69" y1="1673.7" x2="2116.04" y2="877.01" xlink:href="#linear-gradient-34"/><linearGradient id="linear-gradient-55" x1="1975.29" y1="826.09" x2="1921.96" y2="929.43" xlink:href="#linear-gradient-34"/><linearGradient id="linear-gradient-56" x1="-820.42" y1="4045.73" x2="-1214.69" y2="4730.8" gradientTransform="translate(817.23 -2113.76) rotate(-18.59)" xlink:href="#linear-gradient-32"/></defs><title>login_img</title><g class="cls-1"><g id="Background"><rect class="cls-2" width="3710" height="3710"/></g><g id="Illustration"><path class="cls-3" d="M2910.68,2824.46c-56.73,58.79-110.41,96.7-152.82,126.65C2259.3,3303.2,1669.39,3200.57,1544,3175.51c-185.14-37-543-108.56-801.74-408-391.44-453.09-330.49-1166.92-26.86-1638.13,55.54-86.19,348.91-564.57,945.18-641.29,360.86-46.43,781.5,47.21,1086.12,298.41C3386.14,1313.74,3340.62,2379,2910.68,2824.46Z" transform="translate(-30.06)"/><path class="cls-4" d="M996.65,1243.76c.26-13.32,11.46-24,25.18-24h832.25c13.91,0,28.68,11,28.68,24.55V3130.62c0,10.08-5.88,19.75-13.23,26.87s-18.19,11.1-28.57,11.07l-841.37-2.23a40.19,40.19,0,0,1-28-11.4,37.53,37.53,0,0,1-11.25-27.28Z" transform="translate(-30.06)"/><g class="cls-5"><polygon class="cls-6" points="1444.55 1353.4 1716.8 1352.48 1716.7 1319.4 1444.75 1320.24 1444.55 1353.4"/><polygon class="cls-6" points="1443.8 1475.25 1717.17 1474.04 1717.07 1440.69 1444.01 1441.82 1443.8 1475.25"/><polygon class="cls-6" points="1443.05 1598.11 1717.55 1596.6 1717.45 1562.97 1443.26 1564.4 1443.05 1598.11"/><polygon class="cls-6" points="1442.29 1721.99 1717.93 1720.17 1717.83 1686.26 1442.5 1688 1442.29 1721.99"/><polygon class="cls-6" points="1441.53 1846.9 1718.31 1844.77 1718.21 1810.58 1441.74 1812.63 1441.53 1846.9"/><polygon class="cls-6" points="1439.98 2099.87 1719.09 2097.1 1718.98 2062.34 1440.19 2065.02 1439.98 2099.87"/><polygon class="cls-6" points="1437.6 2487.4 1720.27 2483.64 1720.16 2447.98 1437.82 2451.65 1437.6 2487.4"/><polygon class="cls-6" points="1440.76 1972.86 1718.7 1970.41 1718.59 1935.93 1440.97 1938.3 1440.76 1972.86"/><polygon class="cls-6" points="1439.19 2227.96 1719.48 2224.86 1719.37 2189.81 1439.41 2192.81 1439.19 2227.96"/><polygon class="cls-6" points="1438.4 2357.13 1719.87 2353.7 1719.77 2318.35 1438.62 2321.69 1438.4 2357.13"/><polygon class="cls-6" points="1436.8 2618.79 1720.67 2614.68 1720.57 2578.72 1437.02 2582.73 1436.8 2618.79"/><polygon class="cls-6" points="1435.99 2751.3 1721.08 2746.84 1720.97 2710.57 1436.21 2714.93 1435.99 2751.3"/><polygon class="cls-6" points="1435.17 2884.96 1721.49 2880.14 1721.38 2843.56 1435.39 2848.28 1435.17 2884.96"/><polygon class="cls-6" points="1434.34 3019.77 1721.9 3014.59 1721.79 2977.7 1434.57 2982.77 1434.34 3019.77"/><polygon class="cls-6" points="1087.61 1354.6 1361.57 1353.68 1361.87 1320.49 1088.21 1321.33 1087.61 1354.6"/><polygon class="cls-6" points="1085.39 1476.84 1360.48 1475.62 1360.78 1442.16 1086 1443.3 1085.39 1476.84"/><polygon class="cls-6" points="1083.15 1600.09 1359.38 1598.57 1359.68 1564.83 1083.76 1566.27 1083.15 1600.09"/><polygon class="cls-6" points="1080.89 1724.38 1358.28 1722.55 1358.58 1688.53 1081.51 1690.27 1080.89 1724.38"/><polygon class="cls-6" points="1078.61 1849.69 1357.16 1847.55 1357.46 1813.25 1079.23 1815.31 1078.61 1849.69"/><polygon class="cls-6" points="1073.99 2103.5 1354.9 2100.72 1355.21 2065.84 1074.63 2068.53 1073.99 2103.5"/><polygon class="cls-6" points="1066.93 2492.34 1351.44 2488.55 1351.76 2452.77 1067.58 2456.47 1066.93 2492.34"/><polygon class="cls-6" points="1076.31 1976.07 1356.03 1973.6 1356.34 1939.01 1076.94 1941.39 1076.31 1976.07"/><polygon class="cls-6" points="1071.66 2232.02 1353.75 2228.9 1354.07 2193.73 1072.3 2196.75 1071.66 2232.02"/><polygon class="cls-6" points="1069.3 2361.63 1352.6 2358.18 1352.92 2322.7 1069.95 2326.06 1069.3 2361.63"/><polygon class="cls-6" points="1064.53 2624.18 1350.26 2620.04 1350.58 2583.96 1065.19 2588 1064.53 2624.18"/><polygon class="cls-6" points="1062.11 2757.15 1349.08 2752.66 1349.4 2716.26 1062.78 2720.66 1062.11 2757.15"/><polygon class="cls-6" points="1059.67 2891.27 1347.88 2886.42 1348.21 2849.72 1060.34 2854.46 1059.67 2891.27"/><polygon class="cls-6" points="1057.21 3026.55 1346.68 3021.35 1347.01 2984.32 1057.89 2989.43 1057.21 3026.55"/></g><path class="cls-4" d="M519.07,1764.07c.36-15.41,16.18-28.08,35.57-28.08h733c19.65,0,38.95,13.34,38.95,29V3160.85c0,7.51-5.45,14.72-12.14,20s-16.61,8.28-26.07,8.26L522,3187.47c-9.54,0-18.88-3.09-25.55-8.5s-10.43-12.91-10.25-20.48Z" transform="translate(-30.06)"/><polygon class="cls-7" points="1028.83 1900.48 1237.65 1900.25 1239.31 1815.2 1030.29 1815.2 1028.83 1900.48"/><polygon class="cls-8" points="794.77 1900.43 1003.38 1900.21 1004.81 1815.2 796 1815.2 794.77 1900.43"/><polygon class="cls-9" points="560.94 1900.39 769.34 1900.17 770.54 1815.2 561.94 1815.2 560.94 1900.39"/><polygon class="cls-10" points="1026.22 2053.15 1234.68 2053.26 1236.33 1968.75 1027.67 1968.69 1026.22 2053.15"/><polygon class="cls-11" points="792.57 2053.03 1000.82 2053.14 1002.24 1968.68 793.79 1968.61 792.57 2053.03"/><polygon class="cls-12" points="559.15 2052.91 767.18 2053.02 768.38 1968.6 560.14 1968.53 559.15 2052.91"/><polygon class="cls-13" points="1023.62 2204.78 1231.72 2204.95 1233.36 2120.74 1025.07 2120.6 1023.62 2204.78"/><polygon class="cls-14" points="790.37 2204.58 998.26 2204.75 999.68 2120.59 791.59 2120.45 790.37 2204.58"/><polygon class="cls-15" points="557.36 2204.39 765.04 2204.56 766.23 2120.43 558.35 2120.3 557.36 2204.39"/><polygon class="cls-16" points="1021.03 2355.87 1228.76 2356.12 1230.4 2272.2 1022.47 2271.99 1021.03 2355.87"/><polygon class="cls-17" points="788.19 2355.61 995.71 2355.84 997.13 2271.97 789.4 2271.77 788.19 2355.61"/><polygon class="cls-18" points="555.58 2355.34 762.89 2355.58 764.08 2271.74 556.57 2271.54 555.58 2355.34"/><polygon class="cls-19" points="1018.45 2506.45 1225.82 2506.76 1227.45 2423.13 1019.88 2422.86 1018.45 2506.45"/><polygon class="cls-20" points="786.01 2506.11 993.17 2506.41 994.58 2422.83 787.22 2422.56 786.01 2506.11"/><polygon class="cls-21" points="553.8 2505.76 760.76 2506.07 761.94 2422.53 554.79 2422.26 553.8 2505.76"/><polygon class="cls-22" points="1015.88 2656.51 1222.89 2656.89 1224.52 2573.55 1017.3 2573.21 1015.88 2656.51"/><polygon class="cls-23" points="783.84 2656.09 990.64 2656.47 992.05 2573.17 785.04 2572.83 783.84 2656.09"/><polygon class="cls-24" points="552.03 2655.67 758.63 2656.05 759.81 2572.79 553.01 2572.45 552.03 2655.67"/><polygon class="cls-25" points="1013.31 2806.05 1219.96 2806.49 1221.59 2723.44 1014.74 2723.04 1013.31 2806.05"/><polygon class="cls-26" points="781.67 2805.56 988.12 2806 989.52 2722.99 782.87 2722.59 781.67 2805.56"/><polygon class="cls-27" points="550.26 2805.07 756.51 2805.51 757.69 2722.54 551.24 2722.13 550.26 2805.07"/><polygon class="cls-28" points="1010.75 2955.08 1217.05 2955.58 1218.67 2872.82 1012.17 2872.35 1010.75 2955.08"/><polygon class="cls-29" points="779.52 2954.51 985.61 2955.02 987 2872.29 780.71 2871.82 779.52 2954.51"/><polygon class="cls-30" points="548.51 2953.95 754.39 2954.45 755.57 2871.77 549.48 2871.3 548.51 2953.95"/><polygon class="cls-31" points="1008.21 3103.59 1214.15 3104.16 1215.76 3021.68 1009.62 3021.15 1008.21 3103.59"/><polygon class="cls-32" points="777.37 3102.96 983.11 3103.53 984.5 3021.08 778.56 3020.55 777.37 3102.96"/><polygon class="cls-33" points="546.75 3102.32 752.29 3102.89 753.46 3020.49 547.73 3019.95 546.75 3102.32"/><path class="cls-4" d="M2432.45,1797.41c.36-15.41,16.19-28.09,35.58-28.09h733c19.66,0,39,13.34,39,29V3194.19c0,7.51-5.45,14.71-12.14,20s-16.62,8.27-26.07,8.25l-766.41-1.66c-9.54,0-18.87-3.08-25.54-8.5s-10.43-12.9-10.26-20.48Z" transform="translate(-30.06)"/><g class="cls-34"><polygon class="cls-2" points="2942.22 1933.81 3151.04 1933.59 3152.7 1848.53 2943.67 1848.53 2942.22 1933.81"/><polygon class="cls-2" points="2708.16 1933.77 2916.76 1933.55 2918.2 1848.53 2709.38 1848.53 2708.16 1933.77"/><polygon class="cls-2" points="2474.33 1933.72 2682.73 1933.5 2683.93 1848.53 2475.33 1848.53 2474.33 1933.72"/><polygon class="cls-2" points="2939.61 2086.48 3148.07 2086.59 3149.72 2002.09 2941.06 2002.02 2939.61 2086.48"/><polygon class="cls-2" points="2705.95 2086.36 2914.2 2086.47 2915.63 2002.01 2707.18 2001.94 2705.95 2086.36"/><polygon class="cls-2" points="2472.53 2086.25 2680.57 2086.35 2681.77 2001.94 2473.53 2001.87 2472.53 2086.25"/><polygon class="cls-2" points="2937.01 2238.11 3145.1 2238.28 3146.75 2154.07 2938.45 2153.94 2937.01 2238.11"/><polygon class="cls-2" points="2703.76 2237.91 2911.64 2238.09 2913.06 2153.92 2704.98 2153.79 2703.76 2237.91"/><polygon class="cls-2" points="2470.74 2237.72 2678.42 2237.89 2679.61 2153.77 2471.74 2153.63 2470.74 2237.72"/><polygon class="cls-2" points="2934.42 2389.21 3142.15 2389.45 3143.79 2305.53 2935.86 2305.33 2934.42 2389.21"/><polygon class="cls-2" points="2701.57 2388.94 2909.1 2389.18 2910.51 2305.3 2702.79 2305.1 2701.57 2388.94"/><polygon class="cls-2" points="2468.96 2388.67 2676.28 2388.91 2677.47 2305.08 2469.95 2304.87 2468.96 2388.67"/><polygon class="cls-2" points="2931.84 2539.79 3139.21 2540.09 3140.84 2456.47 2933.27 2456.2 2931.84 2539.79"/><polygon class="cls-2" points="2699.39 2539.44 2906.56 2539.75 2907.97 2456.16 2700.6 2455.89 2699.39 2539.44"/><polygon class="cls-2" points="2467.18 2539.1 2674.14 2539.41 2675.33 2455.86 2468.17 2455.59 2467.18 2539.1"/><polygon class="cls-2" points="2929.26 2689.84 3136.27 2690.22 3137.9 2606.88 2930.69 2606.54 2929.26 2689.84"/><polygon class="cls-2" points="2697.22 2689.43 2904.03 2689.8 2905.43 2606.5 2698.43 2606.16 2697.22 2689.43"/><polygon class="cls-2" points="2465.41 2689.01 2672.01 2689.38 2673.2 2606.13 2466.4 2605.79 2465.41 2689.01"/><polygon class="cls-2" points="2926.7 2839.39 3133.35 2839.83 3134.97 2756.77 2928.12 2756.37 2926.7 2839.39"/><polygon class="cls-2" points="2695.06 2838.89 2901.51 2839.33 2902.91 2756.32 2696.26 2755.92 2695.06 2838.89"/><polygon class="cls-2" points="2463.65 2838.4 2669.89 2838.84 2671.07 2755.87 2464.63 2755.47 2463.65 2838.4"/><polygon class="cls-2" points="2924.14 2988.41 3130.44 2988.92 3132.05 2906.15 2925.56 2905.68 2924.14 2988.41"/><polygon class="cls-2" points="2692.9 2987.85 2898.99 2988.35 2900.39 2905.63 2694.1 2905.16 2692.9 2987.85"/><polygon class="cls-2" points="2461.89 2987.28 2667.78 2987.79 2668.95 2905.1 2462.87 2904.63 2461.89 2987.28"/><polygon class="cls-2" points="2921.59 3136.93 3127.53 3137.5 3129.15 3055.02 2923.01 3054.48 2921.59 3136.93"/><polygon class="cls-2" points="2690.75 3136.29 2896.49 3136.86 2897.88 3054.42 2691.94 3053.89 2690.75 3136.29"/><polygon class="cls-2" points="2460.14 3135.65 2665.67 3136.22 2666.84 3053.82 2461.11 3053.29 2460.14 3135.65"/></g><path class="cls-35" d="M1703.74,2177.14c-59.82-187.83-175.56-337.52-312.67-425.51-122.56-78.67-210.87-201.18-243.56-342.7q-5.16-22.31-12.27-44.7c-72-225.9-269.29-364.74-440.77-310.13S442.3,1336.12,514.25,1562a553,553,0,0,0,58.58,126.72C649.13,1810,679,1955.36,650.91,2096c-25.09,125.68-18.28,267.19,26.57,408,66.89,210,203.71,372.37,362.12,454.1a550.4,550.4,0,0,1,158.69,122.72c74.35,83.47,179.14,122.71,275.41,92.05,103.86-33.08,168.74-138.25,173.41-261,2.65-69.43,19-137.49,45.58-201.83C1755.52,2558.19,1764.23,2367,1703.74,2177.14Z" transform="translate(-30.06)"/><path class="cls-36" d="M831.06,1275.29c70,142.15,135.26,286.45,199,431.43,16,36.23,31.34,72.72,46.83,109.16l23.23,54.67L1123,1925.4c15,36.64,30.59,73.06,45.21,109.86l43.88,110.4c28.31,74,57.24,147.71,84.17,222.21,13.51,37.23,27.76,74.19,40.51,111.7l38.78,112.32c50.18,150.27,96.6,301.88,135.21,455.55l-6.63,1.74-33.29-113.87-8.26-28.47-9-28.27-18-56.5-17.94-56.52c-5.94-18.85-12.59-37.48-18.85-56.23-12.78-37.42-25.26-74.93-38.28-112.26-53-149-108.09-297.29-166.19-444.41-29.62-73.35-58.6-146.94-88.73-220.08l-22.45-54.91-22.91-54.73c-15.25-36.5-30.5-73-46.12-109.33q-45.93-109.42-93.5-218.15-47-109-95.68-217.23Z" transform="translate(-30.06)"/><path class="cls-37" d="M2204.2,1803.79c-27.95-205.12-120.37-380.94-245.84-496.81-112.17-103.59-181.18-246.31-189.49-398.62q-1.32-24-4.63-48.47c-33.62-246.7-212-426.09-398.5-400.67s-310.36,246-276.74,492.7a582.83,582.83,0,0,0,37.63,141.69c56.87,139.23,61.57,295.05,7.43,435.43-48.39,125.45-66.74,273.06-45.78,426.85,31.26,229.36,143.1,422.09,291.66,535.35a578.24,578.24,0,0,1,141.49,155.7c61.64,99.82,162.56,159.4,267.24,145.13,112.93-15.39,198.64-112.41,225.45-238.49,15.17-71.35,44.19-138.79,83.15-200.52C2189.22,2207.33,2232.47,2011.19,2204.2,1803.79Z" transform="translate(-30.06)"/><path class="cls-36" d="M1466.8,712.76c46.58,159.72,88,320.82,127.72,482.34,10,40.37,19.25,80.91,28.68,121.41l14.14,60.75,13.62,60.87c8.93,40.62,18.42,81.11,26.89,121.83l25.41,122.16c15.9,81.64,32.5,163.16,46.88,245.1,7.24,41,15.29,81.77,21.71,122.88l19.81,123.21c24.76,164.53,45.4,329.76,57.63,495.72l-7.14.6-13.89-123.82-3.4-30.95-4.17-30.87-8.47-61.71-8.35-61.71c-2.74-20.58-6.25-41.05-9.34-61.58-6.46-41-12.59-82.09-19.31-123.06-27.94-163.74-58.06-327.1-91.54-489.82-17.36-81.23-34-162.6-52-243.72l-13.28-60.87-13.79-60.76c-9.17-40.52-18.34-81-27.92-121.45q-27.69-121.5-57.22-242.6c-19.28-80.82-39.33-161.48-59.62-242Z" transform="translate(-30.06)"/><rect class="cls-38" x="1380.47" y="968.1" width="1673.72" height="2245.56" rx="23.03"/><rect class="cls-37" x="1585.83" y="1305.46" width="1259.45" height="1612.4" rx="76.01"/><rect class="cls-39" x="1681.94" y="1438.1" width="1068.23" height="1367.59" rx="22.8"/><circle class="cls-40" cx="2244.34" cy="1140.29" r="50.07" transform="translate(-179.01 1920.97) rotate(-45)"/><path class="cls-41" d="M2567.82,1948.6l-644.17,10.71c-49,.81-88.92,38.94-88.92,85.15v405.68c0,46.21,39.89,82.07,88.92,80.1l644.17-25.87c46.27-1.86,83.65-39.56,83.65-84.22V2028.07C2651.47,1983.41,2614.09,1947.83,2567.82,1948.6Z" transform="translate(-30.06)"/><path class="cls-42" d="M2600.43,1875.23c-19.51.29-35.35-14.77-35.35-33.63v-88.79c0-89.07-75.35-161.32-168.62-161l-209.85.6c-95.67.28-174.07,74.66-174.07,165.82V1849c0,19.3-16.61,35.2-37.13,35.51s-37.25-15.15-37.25-34.51V1758.9c0-130.1,112.09-236,248.45-236h209.85c132.5,0,239.21,102.81,239.21,229.17v88.53C2635.67,1859.46,2619.9,1874.94,2600.43,1875.23Z" transform="translate(-30.06)"/><path class="cls-43" d="M2350,2173.43c0-45.08-39.35-80.48-87.2-77.23-42.31,2.88-77.29,36.76-79.58,77.21-1.77,31.4,15.48,58.53,41.71,72.26A28.29,28.29,0,0,1,2239.4,2276L2221,2379.19c-2.34,13.14,8.22,24.69,22.13,24.19l47.26-1.69c13.83-.5,24.32-12.75,22-25.68L2294,2273.75c-2.19-12.19,4.15-24.31,15.33-31C2333.68,2228.21,2350,2202.42,2350,2173.43Z" transform="translate(-30.06)"/><path class="cls-44" d="M1056.18,3217.59a10.21,10.21,0,0,0-.27-2.68c-13.36-53-79.66-85.95-79.66-85.95L950,3131c-15.11,46.68-13.16,75.31-10.74,88.06.07.36.18.7.27,1C961.18,3222.06,1005.79,3223.32,1056.18,3217.59Z" transform="translate(-30.06)"/><path class="cls-35" d="M939.51,3220.12a11.4,11.4,0,0,0,8.34,8.42c30.83,6.48,79.83,1.27,100.4-1.42,4.54-.6,7.86-4.79,7.93-9.53C1005.79,3223.32,961.18,3222.06,939.51,3220.12Z" transform="translate(-30.06)"/><path class="cls-45" d="M939.42,3091.89l11.12,53.57a8.76,8.76,0,0,0,7.49,7.2,74.25,74.25,0,0,0,17.24-.27c5.74-.84,9.73-6.68,8.72-12.94l-7.74-47.56Z" transform="translate(-30.06)"/><path class="cls-35" d="M1170,3219.44c-29-.81-44-4.23-51.78-7.4,0,2.89,0,5.82.09,8.87a5.73,5.73,0,0,0,5.47,5.82l159.31-1c5.09,0,8.06-5.93,5.85-10.59C1268,3216.84,1214.81,3220.7,1170,3219.44Z" transform="translate(-30.06)"/><path class="cls-46" d="M1288.9,3215.11a6.9,6.9,0,0,0-.63-1.2c-14.07-19.66-49.9-58.81-120.71-75.78l-34-1.08s-15.12,26.29-15.41,75c7.76,3.17,22.77,6.59,51.78,7.4C1214.81,3220.7,1268,3216.84,1288.9,3215.11Z" transform="translate(-30.06)"/><path class="cls-47" d="M1125.78,3087.15c.54,2.51,7.6,40.62,10.34,55.4a7.39,7.39,0,0,0,6.64,6.27c5.82.32,15.2.36,23.27-1.83,4.35-1.18,7.27-5.62,7-10.54l-3.8-60.29Z" transform="translate(-30.06)"/><path class="cls-48" d="M1100,2383.41s46.73,321.09,80.45,703.19c.63,7.12-5,13.31-12,14.78-10.31,2.17-25.45,4.75-38,4.4a14.08,14.08,0,0,1-13.42-11.75c-11.48-67.37-93.46-428.94-115-508.52,0,0-24.72,338-16.82,513.4a8.3,8.3,0,0,1-7.33,8.64,139.72,139.72,0,0,1-30.49-.08,11.11,11.11,0,0,1-9.91-9.44c-8.19-57-55.28-396.41-53.28-640.89.11-13.79,16.17-127.06,16.17-127.06Z" transform="translate(-30.06)"/><path class="cls-49" d="M1118.15,1843.43l6.25,168a462.62,462.62,0,0,0,50.8,14.43c10.08-32.45,32.27-72.26,50.43-101.87C1158.88,1900.41,1118.15,1843.43,1118.15,1843.43Z" transform="translate(-30.06)"/><path class="cls-50" d="M893.41,2401.91a13.23,13.23,0,0,1-8.68-11.13c-6.21-60.29-36.3-434.09,153.65-587.86,0,0,10.89-28.5,100.43,41.56s41.6,143.49,20.16,244.77c-25.94,122.57-71.45,222.75-51.31,298.17a10.45,10.45,0,0,1-6.4,12.53C1031.7,2425.59,962.42,2426.44,893.41,2401.91Z" transform="translate(-30.06)"/><path class="cls-51" d="M1112.47,1690.92c-.06,5.32-75.9,113-75.9,113s13.61,26.82,78.61,48.59l56.1-115.35Z" transform="translate(-30.06)"/><path class="cls-52" d="M1074.9,2059.56a2.45,2.45,0,0,1-1.38-.42c-60.59-40.94-89.09-107-89.37-107.68a2.46,2.46,0,1,1,4.53-1.93c.28.65,28.25,65.43,87.6,105.53a2.46,2.46,0,0,1-1.38,4.5Z" transform="translate(-30.06)"/><path class="cls-53" d="M1165.15,1968a2.45,2.45,0,0,1-2.07-1.13c-.18-.28-18.69-29.09-53.95-92.23-10.84-19.41-25.09-31.7-42.35-36.53-28.58-8-56.13,7.33-56.4,7.49a2.46,2.46,0,0,1-2.44-4.28c1.19-.68,29.52-16.53,60.12-8,18.59,5.19,33.86,18.27,45.37,38.89,35.17,63,53.61,91.68,53.79,92a2.45,2.45,0,0,1-2.07,3.79Z" transform="translate(-30.06)"/><path class="cls-54" d="M1172.19,1629.19s27,62,28.8,94.54,8.83,53.65-28.8,60.2-69.32-12.19-86.49-44.6c0,0-26.9-49.95-20.87-70.4S1172.19,1629.19,1172.19,1629.19Z" transform="translate(-30.06)"/><path class="cls-55" d="M1098.56,1716l2.14-.94a5.16,5.16,0,0,0,2.52-7.09c-5.3-10.26-15.65-33.75-2.28-39.23,17.22-7.06,85.43-21,100.14-45.17,14.15-23.26,1.62-53.29-17.22-61.83a2.59,2.59,0,0,0-3.39,1.1l-1.57,3a2.56,2.56,0,0,1-4.72-.48h0a2.54,2.54,0,0,0-4.6-.66c-4.53,7.24-16.74,19-49.4,25-46.42,8.57-77.1,27.35-77.87,59.42a2.56,2.56,0,0,1-4,2.11c-3.43-2.09-8.92-3.07-16.25,3.1-12.74,10.72-7.53,38.52,20.42,61.39a2.55,2.55,0,0,1-.12,4.1c-5.07,3.3-12.62,11.14,6.95,21.6,20.24,10.82,35.35,9.94,41.17,9a2.54,2.54,0,0,0,2.07-3.07l-6.21-28.19a2.55,2.55,0,0,1,2.49-3.11Z" transform="translate(-30.06)"/><path class="cls-56" d="M1099.73,1722s-10.3-39.6-28-28.5,9.21,44.38,23.48,45.86Z" transform="translate(-30.06)"/><path class="cls-57" d="M1449.19,1830.79s-13.52-24-12.66-35.63-6.4-28.77,1.32-27.5,9.32.23,11.42,14.21S1475.75,1856.93,1449.19,1830.79Z" transform="translate(-30.06)"/><path class="cls-58" d="M1451.74,1792.66l-.31,47.91c-91.57,98.87-165.69,104.69-225.8,83.44-18.17,29.61-40.35,69.42-50.43,101.87,244.54,53.91,302.12-170.9,302.12-170.9,33.12-13.72,39.8-21.74,38.38-30.73Z" transform="translate(-30.06)"/><path class="cls-59" d="M1522.16,1745.13c-7.82-3.18-23.11-32.33-26-22.74s1.24,22.74,0,26.82-20.3,51-16.49,61.43c2.74,7.52,17.88,6.41,20.19,18.72a7.87,7.87,0,0,0,15.64,0C1515.77,1827.73,1530,1748.3,1522.16,1745.13Z" transform="translate(-30.06)"/><path class="cls-60" d="M1272.56,1645.34c-61.75,122.13-12.8,271.19,109.33,332.94,99.27,50.18,216.32,27.24,289.83-48.68l424.33,214.54a23.07,23.07,0,0,0,22.21-.77l41.5-24.72a22.84,22.84,0,0,0,2-1.39c.19-.14.36-.28.54-.43.48-.38.95-.78,1.39-1.2.15-.14.31-.28.45-.43a22.9,22.9,0,0,0,1.57-1.7l0,0a23.06,23.06,0,0,0,3.61-23.19l-33.72-84.54a23.07,23.07,0,0,0-11-12l-42.5-21.48-11.25,22.24L2034.38,1976l11.25-22.25-34.16-17.27L2001.12,1957l-44.37-22.44,10.34-20.46-16.53-8.36-5.33,10.53-37.2-18.8,5.33-10.54-28.93-14.63-11.25,22.25-20.67-10.45,11.25-22.25-17.91-9L1834.6,1875l-35.82-18.11,11.25-22.24-50.35-25.46h0l-21.57-10.9c17.57-104.21-33.34-212.08-132.61-262.27C1483.37,1474.26,1334.31,1523.21,1272.56,1645.34Zm144.58,16.87a50.17,50.17,0,1,1-67.42,22.14A50.18,50.18,0,0,1,1417.14,1662.21Z" transform="translate(-30.06)"/><path class="cls-61" d="M1616.51,1720.18l201.16,101.7-11.25,22.25,35.82,18.11,11.25-22.25,17.91,9.06-11.25,22.24,20.67,10.45,11.25-22.24,28.93,14.63-5.33,10.53,37.2,18.81,5.33-10.53,16.53,8.35-10.34,20.47,44.37,22.43,10.35-20.46,34.16,17.27L2042,1963.25l36.51,18.46,11.25-22.25,42.5,21.49a23.11,23.11,0,0,1,11,12l33.72,84.53a23.08,23.08,0,0,1-9.62,28.37l-41.5,24.72a23,23,0,0,1-22.21.77l-512.24-259Z" transform="translate(-30.06)"/><path class="cls-62" d="M1389.53,1965.52c122.13,61.75,271.19,12.8,332.94-109.33s12.8-271.19-109.33-332.93-271.19-12.8-332.94,109.32S1267.4,1903.77,1389.53,1965.52Zm-10-226.51a50.17,50.17,0,1,1,67.42-22.14A50.18,50.18,0,0,1,1379.49,1739Z" transform="translate(-30.06)"/><path class="cls-63" d="M1679.36,1916.84l424.33,214.54a23,23,0,0,0,22.21-.77l41.5-24.72a23,23,0,0,0,11-16.84c-38.67-41.91-406.29-202.43-420-235.47-4.89-11.75-5.73-29.55,8.92-57.16l-21.56-10.9c17.57-104.21-33.34-212.08-132.61-262.26-122.13-61.75-271.19-12.8-332.94,109.32s-12.8,271.19,109.33,332.94C1488.79,2015.71,1605.85,1992.77,1679.36,1916.84Zm-254.59-267.38a50.17,50.17,0,1,1-67.41,22.13A50.16,50.16,0,0,1,1424.77,1649.46Z" transform="translate(-30.06)"/><path class="cls-64" d="M1411.47,1922.12c98.16,49.63,218,10.29,267.6-87.87s10.29-218-87.87-267.59-218-10.29-267.6,87.87S1313.31,1872.49,1411.47,1922.12Zm-32-183.11a50.17,50.17,0,1,1,67.42-22.14A50.18,50.18,0,0,1,1379.49,1739Z" transform="translate(-30.06)"/><path class="cls-65" d="M1074.9,2059.56s233.35,78.12,363.87-21.26a37.06,37.06,0,0,1,28.36-7.22l49.86,8.13a39.88,39.88,0,0,0,45.38-30.87c2.57-11.82,3.81-24.75,1.19-35.85l-94.13-5.68,2.69-12.22s-41.61,10.18-42.45,42.73c0,0-97.59,63.93-275.6-35.3C1154.07,1962,1084.75,2016.27,1074.9,2059.56Z" transform="translate(-30.06)"/><g class="cls-66"><path class="cls-35" d="M2877.24,889.66a9.84,9.84,0,0,1-9.43-10.24c.43-10.55.41-21.29-.06-31.89a9.85,9.85,0,0,1,9.21-10.27h.19a9.85,9.85,0,0,1,10.27,9.4c.5,11.17.52,22.47.06,33.58a9.84,9.84,0,0,1-9.2,9.42A9,9,0,0,1,2877.24,889.66ZM2861.92,796c-1.92-10.44-4.29-20.9-7.07-31.09a9.85,9.85,0,1,1,19-5.18c2.92,10.73,5.42,21.74,7.44,32.72a9.85,9.85,0,0,1-7.92,11.46,9.18,9.18,0,0,1-1.16.14A9.83,9.83,0,0,1,2861.92,796Zm-24.13-80c-4.18-9.72-8.83-19.39-13.83-28.72a9.85,9.85,0,0,1,17.36-9.3c5.27,9.84,10.17,20,14.56,30.26a9.84,9.84,0,1,1-18.09,7.76Zm-41.41-72.58c-6.25-8.56-13-16.94-19.91-24.92a9.85,9.85,0,0,1,14.85-12.94c7.32,8.41,14.37,17.24,21,26.24a9.85,9.85,0,1,1-15.9,11.62Zm-56.55-61.54c-8-6.94-16.37-13.64-24.93-19.9a9.85,9.85,0,1,1,11.62-15.9c9,6.59,17.84,13.64,26.23,20.94a9.85,9.85,0,0,1-12.92,14.86Zm-68.76-47.51c-9.33-5-19-9.68-28.71-13.88a9.85,9.85,0,0,1,7.82-18.08c10.23,4.43,20.4,9.34,30.21,14.62a9.84,9.84,0,1,1-9.32,17.34Zm-365.57-4.58a9.84,9.84,0,0,1,4.05-13.32c9.83-5.24,20-10.12,30.29-14.51a9.85,9.85,0,0,1,7.74,18.11c-9.75,4.16-19.43,8.8-28.76,13.78a10,10,0,0,1-4,1.14A9.85,9.85,0,0,1,2305.5,529.84Zm288-26.48c-10.2-2.8-20.65-5.2-31.06-7.13a9.84,9.84,0,1,1,3.58-19.36c11,2,22,4.55,32.71,7.51a9.84,9.84,0,1,1-5.23,19Zm-209.1-7.15a9.85,9.85,0,0,1,6.94-12.07c10.75-2.91,21.77-5.39,32.75-7.38a9.85,9.85,0,0,1,3.51,19.38c-10.44,1.89-20.91,4.25-31.13,7a9.45,9.45,0,0,1-2,.32A9.84,9.84,0,0,1,2384.44,496.21Zm126.59-5.8c-10.56-.45-21.29-.46-31.88,0a9.84,9.84,0,0,1-1.05-19.66h.21c11.15-.47,22.45-.47,33.57,0a9.84,9.84,0,0,1,.21,19.66A9.35,9.35,0,0,1,2511,490.41Z" transform="translate(-30.06)"/><path class="cls-35" d="M2257,573a9.73,9.73,0,0,0,5.49-2.11c4-3.16,8.08-6.28,12.21-9.29a9.85,9.85,0,1,0-11.61-15.91c-4.34,3.17-8.66,6.46-12.84,9.78A9.84,9.84,0,0,0,2257,573Z" transform="translate(-30.06)"/></g><g class="cls-66"><path class="cls-35" d="M2113.47,836.58a9.86,9.86,0,0,0,9.17-8.89c.48-5.05,1.08-10.18,1.77-15.24a9.84,9.84,0,0,0-19.5-2.68c-.74,5.32-1.37,10.72-1.88,16a9.85,9.85,0,0,0,8.87,10.74A10.32,10.32,0,0,0,2113.47,836.58Z" transform="translate(-30.06)"/><path class="cls-35" d="M2499.68,1256.89a9.85,9.85,0,0,1-.28-19.69c10.35-.15,20.86-.74,31.34-1.76a9.85,9.85,0,1,1,1.91,19.6q-6.81.66-13.6,1.09C2512.6,1256.54,2506.09,1256.8,2499.68,1256.89Zm74.05-18a9.85,9.85,0,0,1,7.31-11.85c10.16-2.41,20.32-5.27,30.21-8.51a9.84,9.84,0,1,1,6.13,18.71c-10.41,3.41-21.11,6.43-31.8,9a10.57,10.57,0,0,1-1.66.25A9.84,9.84,0,0,1,2573.73,1238.92ZM2446.11,1254c-10.87-1.34-21.83-3.16-32.58-5.42a9.85,9.85,0,1,1,4-19.27c10.21,2.15,20.62,3.88,30.94,5.15a9.85,9.85,0,0,1-.57,19.6A9.49,9.49,0,0,1,2446.11,1254ZM2654,1212.57a9.84,9.84,0,0,1,4.53-13.16c9.37-4.58,18.65-9.6,27.59-15a9.84,9.84,0,0,1,10.1,16.9c-9.41,5.63-19.19,10.93-29.05,15.74a9.84,9.84,0,0,1-13.17-4.53Zm-292,21.37c-10.3-3.69-20.59-7.88-30.58-12.45a9.85,9.85,0,1,1,8.19-17.91c9.49,4.34,19.26,8.32,29,11.83a9.84,9.84,0,1,1-6.65,18.53Zm-77.73-38c-9.27-5.88-18.39-12.21-27.13-18.83a9.84,9.84,0,0,1,11.89-15.69c8.3,6.28,17,12.3,25.78,17.89a9.84,9.84,0,1,1-10.54,16.63Zm-67.6-54c-7.77-7.76-15.3-15.93-22.39-24.29a9.85,9.85,0,0,1,15-12.73c6.72,7.94,13.88,15.7,21.27,23.08a9.85,9.85,0,0,1-13.91,13.94Zm-54.2-67.52c-5.89-9.26-11.45-18.89-16.53-28.61a9.85,9.85,0,0,1,17.46-9.12c4.82,9.23,10.1,18.37,15.69,27.18a9.83,9.83,0,0,1-3,13.58,9.67,9.67,0,0,1-4.65,1.52A9.84,9.84,0,0,1,2162.41,1074.36Zm-38.06-77.81c-3.69-10.31-7-20.92-9.81-31.53a9.84,9.84,0,1,1,19-5c2.68,10.08,5.81,20.15,9.32,29.95a9.85,9.85,0,0,1-5.95,12.59,10.31,10.31,0,0,1-2.7.56A9.85,9.85,0,0,1,2124.35,996.55Zm-20-84.18c-1-8-1.77-16.15-2.28-24.19q-.28-4.36-.46-8.72a9.73,9.73,0,0,1,9.43-10.24,9.83,9.83,0,0,1,10.24,9.42c.12,2.76.26,5.53.44,8.29.48,7.65,1.21,15.38,2.16,23a9.85,9.85,0,0,1-8.55,11l-.6.06A9.85,9.85,0,0,1,2104.33,912.37Z" transform="translate(-30.06)"/><path class="cls-35" d="M2734.91,1172.72a9.75,9.75,0,0,0,5.53-2.14c4.16-3.33,8.32-6.82,12.38-10.36a9.84,9.84,0,0,0-12.94-14.84c-3.86,3.36-7.81,6.67-11.76,9.84a9.84,9.84,0,0,0,6.79,17.5Z" transform="translate(-30.06)"/></g><path class="cls-35" d="M2753.51,1005a4.63,4.63,0,0,0,0-5.35L2721.08,954A244,244,0,0,0,2739,877l49.22-26.65a4.62,4.62,0,0,0,2.34-4.8l-11-66.27a4.6,4.6,0,0,0-3.77-3.79l-55.18-9.34a244.12,244.12,0,0,0-41.81-67.08l16-53.68a4.61,4.61,0,0,0-1.74-5.06l-54.63-39.09a4.61,4.61,0,0,0-5.34,0l-45.66,32.44a243.9,243.9,0,0,0-77-17.92l-26.66-49.21a4.59,4.59,0,0,0-4.8-2.35l-66.27,11a4.58,4.58,0,0,0-3.78,3.77l-9.35,55.18a243.92,243.92,0,0,0-67.07,41.81l-53.69-16a4.59,4.59,0,0,0-5.05,1.74l-39.09,54.63a4.6,4.6,0,0,0,0,5.34l32.44,45.66a243.63,243.63,0,0,0-17.92,77L2200,871a4.61,4.61,0,0,0-2.35,4.8l11,66.27a4.6,4.6,0,0,0,3.78,3.78l55.18,9.35a243.88,243.88,0,0,0,41.81,67.08l-16,53.68a4.59,4.59,0,0,0,1.73,5l54.64,39.09a4.6,4.6,0,0,0,5.34,0l45.65-32.43a244.3,244.3,0,0,0,77,17.92l26.65,49.21a4.62,4.62,0,0,0,4.8,2.35l66.28-11a4.62,4.62,0,0,0,3.78-3.78l9.34-55.18a243.88,243.88,0,0,0,67.08-41.81l53.68,16a4.6,4.6,0,0,0,5.06-1.73Z" transform="translate(-30.06)"/><path class="cls-4" d="M2488.49,927.94a67.48,67.48,0,1,1,9.92.1A67.61,67.61,0,0,1,2488.49,927.94Zm-27.86-106.81a51.78,51.78,0,1,0,37.74-12.08,53.26,53.26,0,0,0-7.68-.07A51.42,51.42,0,0,0,2460.63,821.13Z" transform="translate(-30.06)"/><path class="cls-4" d="M2503.21,1025.46a169.14,169.14,0,0,0,16.95-1.94h0c1.78-.29,3.55-.62,5.32-1a166.43,166.43,0,0,0,25.59-7.24l.33-.13,1-.36,1.87-.73a4,4,0,0,0,2.48-3.9,4.32,4.32,0,0,0-.27-1.21,3.94,3.94,0,0,0-5.11-2.21A158.35,158.35,0,0,1,2375.2,965.2,157.07,157.07,0,0,1,2337,885.6a159.49,159.49,0,0,1-1.86-16.17,158.22,158.22,0,0,1,132-165.74c86.07-14.26,167.64,44.13,181.9,130.16a159.43,159.43,0,0,1,1.83,16,157.74,157.74,0,0,1-10.65,67.82,3.93,3.93,0,0,0,2.22,5.11,3.94,3.94,0,0,0,5.11-2.22,165.91,165.91,0,0,0,9.26-88c-15-90.32-100.67-151.61-191-136.64a166.08,166.08,0,0,0-138.58,174c.36,5.65,1,11.32,1.94,17a166.09,166.09,0,0,0,174,138.58Z" transform="translate(-30.06)"/><g class="cls-66"><path class="cls-35" d="M3230,1127.3a6.07,6.07,0,0,0,5.54-4.73c1.14-5,2.14-10.17,3-15.27a6.08,6.08,0,0,0-12-2c-.79,4.86-1.75,9.76-2.83,14.57a6.08,6.08,0,0,0,4.59,7.27A6,6,0,0,0,3230,1127.3Z" transform="translate(-30.06)"/><path class="cls-35" d="M3235.47,1080.93a6.07,6.07,0,0,1-5.84-6.31,252.38,252.38,0,0,0-.33-25.51c-.11-1.79-.24-3.58-.4-5.37a6.08,6.08,0,0,1,5.55-6.57,6.28,6.28,0,0,1,6.57,5.55q.24,2.82.42,5.62a265.14,265.14,0,0,1,.34,26.75,6.08,6.08,0,0,1-5.69,5.83C3235.89,1080.93,3235.68,1080.94,3235.47,1080.93Zm-11-67.75a252.41,252.41,0,0,0-8.16-29.77,6.08,6.08,0,1,1,11.51-3.93,263.11,263.11,0,0,1,8.55,31.21,6.08,6.08,0,0,1-4.7,7.2,6.5,6.5,0,0,1-.87.12A6.08,6.08,0,0,1,3224.43,1013.18Zm-19.95-58.31A250.43,250.43,0,0,0,3189.24,928a6.08,6.08,0,0,1,10.19-6.64,263.2,263.2,0,0,1,16,28.17,6.08,6.08,0,0,1-10.93,5.34Zm-33.68-51.64a249.92,249.92,0,0,0-21.34-22.31,6.08,6.08,0,0,1,8.25-8.94,264.58,264.58,0,0,1,22.38,23.4,6.08,6.08,0,0,1-9.29,7.85Zm-45.26-41.85a253,253,0,0,0-26.12-16.46,6.08,6.08,0,1,1,5.85-10.67,268.29,268.29,0,0,1,27.37,17.25,6.08,6.08,0,0,1-7.1,9.88Zm-54.05-29.59a250.21,250.21,0,0,0-29.31-9.59,6.08,6.08,0,1,1,3.05-11.77A262.27,262.27,0,0,1,3076,820.48a6.08,6.08,0,0,1-4.49,11.31Zm-59.62-15.47a248.83,248.83,0,0,0-30.8-2.1,6.08,6.08,0,1,1,.08-12.16,263.5,263.5,0,0,1,32.3,2.2,6.08,6.08,0,0,1-.4,12.09A5.86,5.86,0,0,1,3011.87,816.32Zm-99.37.61a6.07,6.07,0,0,1,4.46-7.34,263.47,263.47,0,0,1,27.64-5.19c1.42-.2,2.82-.37,4.24-.54a6.08,6.08,0,0,1,1.39,12.09c-1.32.15-2.65.32-4,.5a254.39,254.39,0,0,0-26.4,4.95,5.55,5.55,0,0,1-1.06.16A6.06,6.06,0,0,1,2912.5,816.93Z" transform="translate(-30.06)"/></g><g class="cls-66"><path class="cls-35" d="M2992.3,1327.05a266.07,266.07,0,0,1-31.83-.32,6.08,6.08,0,1,1,.86-12.13,252,252,0,0,0,30.36.3,6.08,6.08,0,0,1,.69,12.14Zm24.63-8.48a6.08,6.08,0,0,1,5-7,255.52,255.52,0,0,0,29.58-6.94,6.08,6.08,0,0,1,3.49,11.65,265.31,265.31,0,0,1-31,7.27,4.81,4.81,0,0,1-.65.08A6.08,6.08,0,0,1,3016.93,1318.57Zm-88,4a261.62,261.62,0,0,1-30.82-8,6.08,6.08,0,0,1,3.76-11.56,252.25,252.25,0,0,0,29.4,7.64,6.08,6.08,0,0,1-.78,12A6.33,6.33,0,0,1,2928.89,1322.54Zm148-20.39a6.1,6.1,0,0,1,3.13-8,251.3,251.3,0,0,0,27-13.87,6.08,6.08,0,1,1,6.2,10.46,261,261,0,0,1-28.34,14.55,6.4,6.4,0,0,1-2.06.5A6.11,6.11,0,0,1,3076.85,1302.15Zm-208.38.7a264.48,264.48,0,0,1-28-15.19,6.08,6.08,0,0,1,6.44-10.32,249.16,249.16,0,0,0,26.69,14.48,6.08,6.08,0,0,1-2.19,11.58A6,6,0,0,1,2868.47,1302.85Zm-53.94-33.62a264.49,264.49,0,0,1-23.55-21.44,6.08,6.08,0,0,1,8.71-8.48,253.37,253.37,0,0,0,22.47,20.45,6.08,6.08,0,0,1-3.44,10.8A6,6,0,0,1,2814.53,1269.23Zm-44.35-45.57a263.64,263.64,0,0,1-17.72-26.47,6.08,6.08,0,1,1,10.5-6.14,248.32,248.32,0,0,0,16.9,25.24,6.07,6.07,0,0,1-1.15,8.52,6,6,0,0,1-3.3,1.23A6.08,6.08,0,0,1,2770.18,1223.66Z" transform="translate(-30.06)"/><path class="cls-35" d="M3136.47,1273.92a6,6,0,0,0,3.33-1.26c4.12-3.18,8.16-6.5,12-9.86a6.08,6.08,0,0,0-8-9.17c-3.68,3.21-7.53,6.38-11.46,9.42a6.07,6.07,0,0,0,4.11,10.87Z" transform="translate(-30.06)"/></g><path class="cls-35" d="M3152.61,1159.29a3.1,3.1,0,0,0,0-3.58l-21.7-30.55a163.14,163.14,0,0,0,12-51.51l32.93-17.84a3.07,3.07,0,0,0,1.57-3.21l-7.35-44.35a3.09,3.09,0,0,0-2.52-2.53l-36.93-6.25a163.1,163.1,0,0,0-28-44.89l10.68-35.92a3.06,3.06,0,0,0-1.16-3.38l-36.56-26.16a3.06,3.06,0,0,0-3.57,0l-30.55,21.7a163.13,163.13,0,0,0-51.52-12l-17.83-32.93a3.07,3.07,0,0,0-3.21-1.57l-44.35,7.35a3.07,3.07,0,0,0-2.53,2.52l-6.26,36.93a163.19,163.19,0,0,0-44.88,28L2835,928.43a3.06,3.06,0,0,0-3.38,1.16l-26.16,36.56a3.06,3.06,0,0,0,0,3.57l21.71,30.55a163.42,163.42,0,0,0-12,51.51l-32.93,17.84a3.1,3.1,0,0,0-1.57,3.21l7.36,44.35a3.06,3.06,0,0,0,2.52,2.53l36.93,6.25a163.31,163.31,0,0,0,28,44.89l-10.68,35.92a3.08,3.08,0,0,0,1.16,3.38l36.56,26.16a3.08,3.08,0,0,0,3.58,0l30.55-21.71a163.14,163.14,0,0,0,51.51,12l17.84,32.94a3.08,3.08,0,0,0,3.21,1.57l44.35-7.36a3.08,3.08,0,0,0,2.53-2.52l6.25-36.93a163.25,163.25,0,0,0,44.89-28l35.92,10.69a3.09,3.09,0,0,0,3.38-1.16Z" transform="translate(-30.06)"/><path class="cls-4" d="M2975.21,1108.55a45.78,45.78,0,1,1,6.81.07A47,47,0,0,1,2975.21,1108.55Zm-29.92-48.64a33.85,33.85,0,0,0,30.92,36.53h0a33.84,33.84,0,0,0,5.61-67.45,34.41,34.41,0,0,0-5,0A33.89,33.89,0,0,0,2945.29,1059.91Z" transform="translate(-30.06)"/><path class="cls-4" d="M2985.45,1176.43q5.76-.37,11.57-1.33a115.13,115.13,0,0,0,22.53-6.12l1-.38a6.09,6.09,0,0,0,3.84-6,6.18,6.18,0,0,0-.42-1.86,6.09,6.09,0,0,0-7.89-3.41,102.89,102.89,0,0,1-21,5.81h0l-1.19.19a101.36,101.36,0,0,1-49.92-4.69,102.67,102.67,0,0,1-24.47-12.7l-.19-.13-.57-.4a102.39,102.39,0,1,1,160.59-100,100.18,100.18,0,0,1,1.18,10.33,101.9,101.9,0,0,1-6.89,43.9,6,6,0,0,0-.41,2.62,6.08,6.08,0,0,0,11.73,1.84,114.31,114.31,0,0,0,7.71-49.12,114.56,114.56,0,1,0-227.33,25.91A114.71,114.71,0,0,0,2985.45,1176.43Z" transform="translate(-30.06)"/></g></g></svg>