<?xml version="1.0" encoding="utf-8"?>
<!-- Generator: Adobe Illustrator 23.0.6, SVG Export Plug-In . SVG Version: 6.00 Build 0)  -->
<svg version="1.1" id="Layer_1" xmlns="http://www.w3.org/2000/svg" xmlns:xlink="http://www.w3.org/1999/xlink" x="0px" y="0px"
	 viewBox="0 0 512 512" style="enable-background:new 0 0 512 512;" xml:space="preserve">
<style type="text/css">
	.st0{fill-rule:evenodd;clip-rule:evenodd;fill:#FF9800;}
</style>
<g id="Layer_x0020_1">
	<path class="st0" d="M82.2,422.4v-53.6c0-31,18.4-59.5,46.7-72.7c3-1.4,9.1-3,16.6-4.6l50.5,44.7l-16.8,13.1
		c-1.3,1.1-1.7,3-0.9,4.4l38.6,68.8h-66.2v-39.7c0-1.9-1.5-3.5-3.5-3.5c-1.9,0-3.5,1.5-3.5,3.5v39.7H82.2z M104.8,148.6H84v20.8
		c0,3.7-3.1,6.8-6.8,6.8s-6.8-3-6.8-6.8v-20.8H49.6c-3.7,0-6.8-3-6.8-6.8c0-3.8,3.1-6.8,6.8-6.8h20.8v-20.8c0-3.7,3-6.8,6.8-6.8
		s6.8,3,6.8,6.8V135h20.7c3.8,0,6.8,3,6.8,6.8C111.6,145.6,108.6,148.6,104.8,148.6z M451.5,260.2h-8.8v8.8c0,3.7-3,6.8-6.8,6.8
		c-3.7,0-6.8-3.1-6.8-6.8v-8.8h-8.8c-3.7,0-6.8-3-6.8-6.8c0-3.7,3-6.8,6.8-6.8h8.8v-8.8c0-3.8,3.1-6.8,6.8-6.8c3.7,0,6.8,3,6.8,6.8
		v8.8h8.8c3.8,0,6.8,3,6.8,6.8C458.4,257.2,455.3,260.2,451.5,260.2z M127.6,57.5h-8.8v8.8c0,3.7-3,6.8-6.8,6.8
		c-3.7,0-6.8-3-6.8-6.8v-8.8h-8.8c-3.7,0-6.8-3.1-6.8-6.8s3.1-6.8,6.8-6.8h8.8V35c0-3.7,3-6.8,6.8-6.8c3.8,0,6.8,3,6.8,6.8v8.8h8.8
		c3.7,0,6.8,3.1,6.8,6.8S131.3,57.5,127.6,57.5z M67.6,318.2c-2.6,0-5-1.5-6.1-3.8l-14.8-30.8l-30.8-14.9c-2.4-1.1-3.9-3.5-3.9-6.1
		c0-2.6,1.5-5,3.9-6.1l30.8-14.8l14.8-30.8c1.2-2.4,3.5-3.9,6.1-3.9c2.7,0,5,1.5,6.2,3.9l14.8,30.8l30.8,14.8
		c2.4,1.2,3.8,3.5,3.8,6.1c0,2.7-1.5,5-3.8,6.1l-30.8,14.9l-14.8,30.8C72.6,316.7,70.3,318.2,67.6,318.2z M444.4,175.5
		c-2.6,0-5-1.5-6.1-3.8l-14.9-30.8l-30.8-14.9c-2.3-1.1-3.8-3.5-3.8-6.1c0-2.6,1.5-5,3.8-6.1l30.8-14.8L438.3,68
		c1.1-2.4,3.5-3.9,6.1-3.9s5,1.5,6.1,3.9l14.8,30.8l30.8,14.8c2.4,1.2,3.9,3.5,3.9,6.1c0,2.7-1.5,5-3.9,6.1l-30.8,14.9l-14.8,30.8
		C449.4,174,447,175.5,444.4,175.5z M474.1,511.8H37.9c-3.7,0-6.8-3-6.8-6.8v-34.5c0-3.8,3.1-6.8,6.8-6.8h436.1c3.7,0,6.8,3,6.8,6.8
		v34.5C480.9,508.8,477.8,511.8,474.1,511.8z M54.9,456.9v-21c0-3.8,3.1-6.8,6.8-6.8h388.6c3.7,0,6.8,3,6.8,6.8v21H54.9z
		 M304.3,276.8c2-0.9,4.2-1.2,6.3-1.1c0.5,0.1,0.9,0.1,1.4,0.1l-8.2-22.1c-13.7,11.6-30,17.9-48.1,17.9c-18.6,0-34.7-6.7-47.7-17.6
		l-8.1,21.9c0.4-0.1,0.9-0.1,1.4-0.1c2.2-0.1,4.3,0.2,6.3,1.1l48.3,21L304.3,276.8z M255.7,265c-32,0-59.3-22.6-71.5-59.1
		c-6.7-6.1-30.3-31.4-19.5-73.9c-3.5-11.4-17.9-67.5,19.1-99.1l0.1-0.1C210.5,10.9,233.7,0.2,255,0.2c18.4,0,32.2,7.6,44.4,14.4
		c5.4,3,10.5,5.8,15.6,7.7c17.6,6.4,30.3,21.7,35.8,43.1c5.1,19.7,3.7,43.2-3.9,66.6c10.7,42.6-12.8,67.8-19.5,73.9
		C315,242.4,287.7,265,255.7,265z M178.4,133.6c-11.2,40.9,15.7,62.8,16,63c1,0.8,1.8,1.9,2.2,3.2c10.1,31.8,32.7,51.4,59.1,51.4
		c26.4,0,49-19.7,59.1-51.4c0.4-1.3,1.2-2.4,2.2-3.2c1.1-0.9,27.1-22.5,16-63.1l-0.1-0.1c-3.5-13.2-12.4-18.1-32.8-18.1
		c-5.7,0-11.7,0.4-18,0.7c-6.6,0.4-13.5,0.8-20.3,0.8h-0.1c-14.7,0-33-1.7-47.4-13.8c-14.9,8.6-33.8,22.2-36,30.5V133.6z M154,289.7
		c18-3.5,39.7-6.6,47.8-7.2c1.1-0.1,2.2,0.1,3.2,0.6l18.6,8.1l15.8,51.4l-11.7,79.8h-2.7l-39-69.6l17.7-13.9
		c0.8-0.6,1.3-1.6,1.3-2.6c0.1-1-0.4-2-1.2-2.7L154,289.7z M272.7,342.6l18.4-52.7L307,283c1-0.4,2.1-0.6,3.2-0.6
		c8.1,0.6,30,3.7,48,7.2l-50,43.9c-0.7,0.7-1.2,1.7-1.2,2.7c0,1,0.5,2,1.3,2.7l17.7,13.8l-39,69.6h-2.7L272.7,342.6z M277.4,422.4
		h-42.8l11.2-76.6h20.4L277.4,422.4z M231.8,294.7l24.2,10.5l26.5-11.5l-15.9,45.1h-21.4L231.8,294.7z M366.7,291.5
		c7.4,1.6,13.4,3.2,16.4,4.5c28.4,13.2,46.7,41.7,46.7,72.7v53.6h-61.8v-39.7c0-1.9-1.6-3.5-3.5-3.5c-1.9,0-3.5,1.5-3.5,3.5v39.7
		H295l38.6-68.7c0.9-1.5,0.4-3.4-0.9-4.5l-16.8-13.1L366.7,291.5z"/>
</g>
</svg>
