<?xml version="1.0" encoding="utf-8"?>
<!-- Generator: Adobe Illustrator 23.0.6, SVG Export Plug-In . SVG Version: 6.00 Build 0)  -->
<svg version="1.1" id="Layer_1" xmlns="http://www.w3.org/2000/svg" xmlns:xlink="http://www.w3.org/1999/xlink" x="0px" y="0px"
	 viewBox="0 0 64 64" style="enable-background:new 0 0 64 64;" xml:space="preserve">
<style type="text/css">
	.st0{fill:#FF9800;}
</style>
<path class="st0" d="M59,6h-5v52h5V6z"/>
<path class="st0" d="M37,32h-5v26h5V32z"/>
<path class="st0" d="M48,15h-5v43h5V15z"/>
<path class="st0" d="M15,38h-5v20h5V38z"/>
<path class="st0" d="M61,58H26V25h-5v33H6V3c0-0.3-0.1-0.5-0.3-0.7C5.5,2.1,5.3,2,5,2S4.5,2.1,4.3,2.3C4.1,2.5,4,2.7,4,3v13H3
	c-0.3,0-0.5,0.1-0.7,0.3C2.1,16.5,2,16.7,2,17s0.1,0.5,0.3,0.7C2.5,17.9,2.7,18,3,18h1v13H3c-0.3,0-0.5,0.1-0.7,0.3
	C2.1,31.5,2,31.7,2,32c0,0.3,0.1,0.5,0.3,0.7C2.5,32.9,2.7,33,3,33h1v13H3c-0.3,0-0.5,0.1-0.7,0.3C2.1,46.5,2,46.7,2,47
	s0.1,0.5,0.3,0.7C2.5,47.9,2.7,48,3,48h1v10H3c-0.3,0-0.5,0.1-0.7,0.3C2.1,58.5,2,58.7,2,59s0.1,0.5,0.3,0.7C2.5,59.9,2.7,60,3,60h1
	v1c0,0.3,0.1,0.5,0.3,0.7C4.5,61.9,4.7,62,5,62s0.5-0.1,0.7-0.3C5.9,61.5,6,61.3,6,61v-1h10v1c0,0.3,0.1,0.5,0.3,0.7S16.7,62,17,62
	s0.5-0.1,0.7-0.3S18,61.3,18,61v-1h10v1c0,0.3,0.1,0.5,0.3,0.7S28.7,62,29,62s0.5-0.1,0.7-0.3S30,61.3,30,61v-1h10v1
	c0,0.3,0.1,0.5,0.3,0.7S40.7,62,41,62s0.5-0.1,0.7-0.3S42,61.3,42,61v-1h10v1c0,0.3,0.1,0.5,0.3,0.7S52.7,62,53,62s0.5-0.1,0.7-0.3
	S54,61.3,54,61v-1h7c0.3,0,0.5-0.1,0.7-0.3S62,59.3,62,59s-0.1-0.5-0.3-0.7S61.3,58,61,58z"/>
</svg>
