<?xml version="1.0" encoding="utf-8"?>
<!-- Generator: Adobe Illustrator 23.0.6, SVG Export Plug-In . SVG Version: 6.00 Build 0)  -->
<svg version="1.1" id="Layer_1" xmlns="http://www.w3.org/2000/svg" xmlns:xlink="http://www.w3.org/1999/xlink" x="0px" y="0px"
	 viewBox="0 0 128 128" style="enable-background:new 0 0 128 128;" xml:space="preserve">
<style type="text/css">
	.st0{fill:#FF9800;}
</style>
<title>a</title>
<path class="st0" d="M117.5,98.3c-0.6-3.6-2.9-6.7-6.2-8.3c-10.7-5.3-34.2-13.2-34.2-13.2V69l0.7-0.5c4.6-3.5,7.6-8.6,8.5-14.3
	l0.1-0.8h0.6c3.5,0,6.7-2.1,8-5.4c0.8-1.4,1.2-3,1.2-4.6c0-1.1-0.2-2.2-0.6-3.2c-0.2-1.1-0.8-2.1-1.7-2.8l-2.2-1.3l0.5-2.4
	C96.2,16.8,83,1.4,65.3,1c-0.4,0-0.9,0-1.3,0c-0.4,0-0.9,0-1.3,0c-17.7,0.4-31,15.8-27,32.8l0.5,2.4L34,37.5
	c-0.9,0.7-1.5,1.7-1.7,2.8c-0.4,1-0.6,2.1-0.6,3.2c0,1.6,0.4,3.2,1.2,4.6c1.3,3.3,4.5,5.4,8,5.4h0.6l0.1,0.8
	c0.9,5.7,4,10.8,8.5,14.3l0.7,0.5v7.8c0,0-23.5,7.9-34.2,13.2c-3.3,1.6-5.5,4.7-6.2,8.3C8.7,109,8.3,127,8.3,127h111.3
	C119.7,127,119.3,109,117.5,98.3z"/>
</svg>
