<svg version="1.2" xmlns="http://www.w3.org/2000/svg" viewBox="0 0 340 236" width="340" height="236"><style>.a{opacity:.9;fill:none;stroke:#000;stroke-linecap:round;stroke-linejoin:round;stroke-width:16}</style><filter id="f0"><feFlood flood-color="#ffffff" flood-opacity="1" /><feBlend mode="normal" in2="SourceGraphic"/><feComposite in2="SourceAlpha" operator="in" /></filter><g filter="url(#f0)"><path class="a" d="m265.1 160.4c34.4-38.4 90.8 13.3 55.4 53.1-28.1 31.5-76.8 7-63.3-33.8"/><path class="a" d="m16.1 168.6c3.7-9.1 9.5-16.6 18-21.7 73.1-43.7 47.1 105.2-2 70.2-12.1-8.7-19.1-14.1-20.1-29.7"/><path class="a" d="m55.2 179.3c39.4-19 82.1-32.5 120.1-54.5 1.4-0.9 15.9-10.1 16.8-8.8 4.3 6.4-12.5 59-13.2 70"/><path class="a" d="m173.4 187.5c-83.9-64.4-116.2 48.6 3.2 3.9"/><path class="a" d="m183.4 109.5c-30.6-15.8-44.1 14.3-56.7 36.1"/><path class="a" d="m136.2 141.5c12.6 8.9 18.6 24.4 25.6 37.8"/><path class="a" d="m83.5 142.4c19.6-2.1 39.5-4.5 59.4-4.5"/><path class="a" d="m8 55.2c11.2 25.3 26.4 57.4 31 82.3"/><path class="a" d="m53.9 80.8c1.2 21.6 16 39.8 20.2 59.4"/><path class="a" d="m56.6 76.8c17.3 4.8 38.1 8.3 55.3 1.7"/><path class="a" d="m115.9 76.8c13.9-6.1 27.7-12.1 40.5-20.3"/><path class="a" d="m160.4 57.9c11.3 16.5 22.9 33.3 33.8 49.9"/><path class="a" d="m195.5 110.5c31.9 26.3 67.5 48.9 98.5 75.5"/><path class="a" d="m205 110.4c21.5-17.6 30 4.8 4.3 8.2"/><path class="a" d="m48 26.5c12.2-37 64.7-12.6 46 21.6-12.5 23.1-49.3 12.9-43-12.5"/></g></svg>