<svg version="1.2" xmlns="http://www.w3.org/2000/svg" viewBox="0 0 586 584" width="586" height="584"><style>.a{fill:#fff}</style><path fill-rule="evenodd" class="a" d="m115.2 224c-61.8 0-112-50.2-112-112 0-61.8 50.5-112 112-112 61.8 0 112 50.2 112 112 0 61.8-50.1 112-112 112zm0-202.8c-49.9 0-90.7 40.8-90.7 90.7 0 49.9 40.8 90.7 90.7 90.7 49.9 0 90.7-40.8 90.7-90.7 0-49.9-40.4-90.7-90.7-90.7zm470.4 281.2l-236.8 265.9-20.7-18.3-26.2 33.7-87.8-68.5c-37.2 23-83.4 27.8-123.8 8.8l-89.9 43.9v-150.5l203-113.3c19.5-10 46.4-10.9 66.4-1.6 0.5 0.7 6 3.2 7.9 4.4l93.8-120.3 37.8 29.5 35.1-39.5zm-111 31.9c-13.2-14-16.2-34.8-7.4-51.8l-64.8-50.4c-13.7 12.3-33.9 14.9-50.4 6.3l-107.4 138.1-34.1-27.4c-3.3-2.5-8.1-2.1-10.7 1.2-2.5 3.3-2.1 8.1 1.2 10.7l111 89.4c8.4 6.7 10.2 19.5 2.8 30.2-7 8.4-19.5 10.2-30.2 2.8l-61.8-48.5-21.4 25.3c-4.8 5.3-9.5 9.2-13.9 12.5-17.4 12.6-39.9 16.3-60.6 9.8-4.2-1.2-8.6 1.1-10 5.3-1.2 4.2 1.1 8.6 5.3 10 8.3 2.5 16.7 3.9 25.3 3.9 19 0 37.6-6.5 52.9-18.8l69.9 54.8c13.9-13.2 35-16 52-7.2zm-371.2-200.5c-3.2-1.9-5.1-5.4-5.1-9.2v-73.7c0-5.9 4.9-10.5 10.5-10.5 5.6 0 10.5 4.9 10.5 10.5v55.9l51.8-28.3c5.1-2.7 11.6-0.8 14.3 4.3 2.7 5.1 0.8 11.6-4.3 14.3l-67.5 36.7c-1.3 1.1-6.7 1.9-10.2 0zm200.5 292.4c-26.9-21.1-30.4-58.7-10.2-84.5 20.2-25.8 58.7-30.4 84.5-10.2 26.9 21.1 30.4 58.7 10.2 84.5-20.2 25.6-58.7 30.2-84.5 10.2zm41-41.3c8.9-4.9 12.6-5.1 15.6-2.8 3.9 3.3 3.7 7.9-1.2 14.2-3.9 5.1-10.9 9.7-15.3 11.1l7.9 11.1c3.3-2.3 11.8-8.8 15.1-13l7.2 5.6 7.2-9.3-8.1-6.5c4.4-10 3.2-20.9-3.3-27.6-8.2-6.5-16.5-4.4-28.6 2.6-8.6 4.6-13.3 6-16.3 3.7-3-2.5-2.5-7.2 1.4-12.3 4.8-6.1 9.2-9.5 11.8-10.7l-7.9-11.1c-4.4 3.2-10.4 6.7-13.7 10.9l-7.2-5.6-7.2 9.3 8.1 6.5c-5.3 10.9-3 20.9 5.1 27.4 8.2 6.5 18.8 3.2 29.4-3.5zm27.7 131.2l165.1-185.5c-12.3-14.6-13.7-35.7-3.9-52l-61.3-54.6c-13 10.2-30.6 12.3-45.5 5.8l93.6 72.9-162.1 208.1c5.1 1.1 9.7 3 14.1 5.3z"/></svg>