<svg xmlns="http://www.w3.org/2000/svg" viewBox="0 0 462.78 361.81"><defs><style>.cls-1{isolation:isolate;}.cls-2{fill:#554851;}.cls-3{fill:#ccc;}.cls-4{fill:#f9a66e;}.cls-5{fill:#e96e52;}.cls-6{fill:#ad3e25;}.cls-7{fill:#21344c;}.cls-8{fill:#0a0d0f;}.cls-9{fill:#fff;}.cls-10{fill:#691d12;}.cls-11{fill:#415d67;opacity:0.3;}.cls-11,.cls-14{mix-blend-mode:multiply;}.cls-12{fill:#fdc43c;}.cls-13{fill:#fcb12b;}.cls-14{fill:#cfcfce;opacity:0.8;}.cls-15{fill:#0d3b5f;}.cls-16{fill:#3b78bd;}.cls-17{fill:#0d1e2a;}.cls-18{fill:#2c3030;}.cls-19{fill:#b1b4b7;}.cls-20{fill:#202424;}.cls-21{fill:#0f1414;}.cls-22{fill:#eff8f8;}.cls-23{fill:#922d1e;}.cls-24{fill:#137fc3;}.cls-25{fill:#2999d5;}.cls-26{fill:#3e4545;}.cls-27{fill:#e9e6ca;}.cls-28{fill:#f3f3f3;}.cls-29{fill:#dfe0e2;}.cls-30{fill:#5d6463;}.cls-31{fill:#484d4d;}.cls-32{fill:#1c3c57;}</style></defs><title>Untitled-1</title><g class="cls-1"><g id="Layer_1" data-name="Layer 1"><path class="cls-2" d="M241.67,644.77c0,1.43-35.93,2.58-80.26,2.58s-80.26-1.15-80.26-2.58,35.94-2.59,80.26-2.59S241.67,643.34,241.67,644.77Z" transform="translate(-81.15 -285.54)"/><path class="cls-2" d="M381.46,643.31c0,1.43-35.94,2.58-80.26,2.58s-80.26-1.15-80.26-2.58,35.93-2.58,80.26-2.58S381.46,641.88,381.46,643.31Z" transform="translate(-81.15 -285.54)"/><path class="cls-2" d="M543.93,643.31c0,1.43-48.72,2.58-108.81,2.58s-108.82-1.15-108.82-2.58,48.72-2.58,108.82-2.58S543.93,641.88,543.93,643.31Z" transform="translate(-81.15 -285.54)"/><path class="cls-3" d="M174.05,404.84a4.06,4.06,0,0,1,.81,1.05c1.67,2.77,4.34,9.86,7.87,16.83.33.67.68,1.33,1,2,5,9.36,11.56,17.73,19.34,14.09,1.85-.86,5.3.45,5.28-2.23,0-1.92,3.64-1.39,3.88-2.63,1.36-6.75-12.07-40.6-19.44-49.57-4.85-5.89-9.44-3.16-13.52-8.36Z" transform="translate(-81.15 -285.54)"/><path class="cls-3" d="M185.56,470.05c.31,3.8.53,7.42.51,10.67v0a42.72,42.72,0,0,1-.33,5.66c-4.09,1.17-47.83-.36-48.13-.32,0,0-.76-24.15-2.15-50.51-1.15-21.91-2.76-45.37-4.76-57.76a43.33,43.33,0,0,1,8.41-3.2h0c1.76-.51,3.46-.95,4.91-1.33a18.63,18.63,0,0,0,4.19-1.31l29.29,1.87a26.28,26.28,0,0,1,2.27,1.56c1.36,1,3.12,2.39,5,3.9,3.38,2.75,5.65,8.15,8.07,10.34,1.79,1.62,4.21,21.35-6.89,41.05a18.73,18.73,0,0,0-2,7l-.09.84a87.36,87.36,0,0,0,.13,13.75v.06c.4,5.76,1.07,11.87,1.54,17.6Z" transform="translate(-81.15 -285.54)"/><path class="cls-4" d="M183.05,347.75a54.07,54.07,0,0,0-2.57,6.6c-.44,1.33-.9,2.77-1.34,4.23l-.09.32a75.37,75.37,0,0,0-2.25,9.33c-.12.75-.2,1.44-.24,2a11.37,11.37,0,0,0,0,1.16,2.9,2.9,0,0,0,.33,1.38c6.5,9.81-6.18,16.49-14.68,14.63s-17.43-9.52-14-15.47a51.33,51.33,0,0,0,5.85-14.32c.69-2.74,1.15-5.18,2-7.67h0c.48-1.43.91-2.86,1.28-4.25,2.21-8.15,2.8-15,1.88-15.75Z" transform="translate(-81.15 -285.54)"/><path class="cls-5" d="M180.48,354.35c-.44,1.33-.9,2.77-1.34,4.23l-.09.32a75.37,75.37,0,0,0-2.25,9.33c-.12.75-.2,1.44-.24,2-4.38.51-10.41-.38-13.68-2.22-4.57-2.58-6.49-6.15-8.82-10.4.69-2.74,1.15-5.18,2-7.67h0c.48-1.43.91-2.86,1.28-4.25Z" transform="translate(-81.15 -285.54)"/><path class="cls-4" d="M185.87,333.12c.63-3.21,2.67-4.42,4.26-3.13,2,1.62,1.53,5.73,1,8.29a18.65,18.65,0,0,1-3.54,7.42C183.19,350.52,185.87,333.12,185.87,333.12Z" transform="translate(-81.15 -285.54)"/><path class="cls-5" d="M186.24,335.53c.82-5.06,2.35-6.43,4.12-3.19,1.23,2.25-.14,5.26-.8,7.38.46-1.83-.27-6.9-1.71-4.11-1.22,2.39-1.58,6.7-2.07,6.69A61.15,61.15,0,0,1,186.24,335.53Z" transform="translate(-81.15 -285.54)"/><path class="cls-4" d="M161.65,364.22c-10.92-7.85-10.27-20.44-9.66-28.77a83.69,83.69,0,0,1,1.6-11.31,62.81,62.81,0,0,1,2.32-8.21,34.83,34.83,0,0,1,2.7-5.8,12.14,12.14,0,0,1,4.72-4.86,84.85,84.85,0,0,1,9.42.19c4.61.59,7.39,1.28,9.95,5a12.59,12.59,0,0,1,1.25,3.19c1.54,5.34,3.29,15.65,4.44,24.08C194.58,383.26,167.22,368.22,161.65,364.22Z" transform="translate(-81.15 -285.54)"/><path class="cls-5" d="M180.36,346.9c-1-7.53-2.53-11.47-2.23-15.37,0,0,3.49,14,3.8,16.32-2.63,1.23-5,2.36-7.43.46C176.86,348.49,178.83,348.61,180.36,346.9Z" transform="translate(-81.15 -285.54)"/><path class="cls-6" d="M182.47,322.26a19.46,19.46,0,0,1,7.23,1.51l-1.86,3.31c-1.85-.83-6.21-.32-9.11-.43C178.61,324.7,178.83,322.44,182.47,322.26Z" transform="translate(-81.15 -285.54)"/><path class="cls-7" d="M162.21,333.81c.07,2.34,1.3,4.21,2.74,4.16a2.07,2.07,0,0,0,1.58-.94,5.42,5.42,0,0,0,.91-3.38c-.07-2.34-1.3-4.2-2.75-4.16a1.1,1.1,0,0,0-.31,0C163.09,329.82,162.14,331.64,162.21,333.81Z" transform="translate(-81.15 -285.54)"/><path class="cls-8" d="M163.47,332.91c.07,2.34,1.3,4.21,2.75,4.16a1.06,1.06,0,0,0,.31,0,5.42,5.42,0,0,0,.91-3.38c-.07-2.34-1.3-4.2-2.75-4.16a1.1,1.1,0,0,0-.31,0A5.51,5.51,0,0,0,163.47,332.91Z" transform="translate(-81.15 -285.54)"/><path class="cls-9" d="M163,333.78a.71.71,0,0,0,.66.74.7.7,0,0,0,.62-.77.65.65,0,1,0-1.28,0Z" transform="translate(-81.15 -285.54)"/><path class="cls-5" d="M160.14,333.73a8.23,8.23,0,0,1,10.13-2.15,5.21,5.21,0,0,0-10.13,2.15Z" transform="translate(-81.15 -285.54)"/><path class="cls-7" d="M181.1,333c.07,2.35,1.3,4.21,2.75,4.16a2.07,2.07,0,0,0,1.58-.93,5.53,5.53,0,0,0,.91-3.38c-.07-2.34-1.31-4.21-2.75-4.17a1.65,1.65,0,0,0-.32,0C182,329,181,330.81,181.1,333Z" transform="translate(-81.15 -285.54)"/><path class="cls-8" d="M182.36,332.08c.08,2.34,1.3,4.21,2.75,4.16a1.73,1.73,0,0,0,.32,0,5.53,5.53,0,0,0,.91-3.38c-.07-2.34-1.31-4.21-2.75-4.17a1.65,1.65,0,0,0-.32,0A5.53,5.53,0,0,0,182.36,332.08Z" transform="translate(-81.15 -285.54)"/><path class="cls-9" d="M181.9,333a.71.71,0,0,0,.67.74.77.77,0,1,0-.67-.74Z" transform="translate(-81.15 -285.54)"/><path class="cls-5" d="M179,332.9a8.19,8.19,0,0,1,10.12-2.14A5.2,5.2,0,0,0,179,332.9Z" transform="translate(-81.15 -285.54)"/><path class="cls-6" d="M167.87,321.23c-3-.47-6.6.22-9,.63l.06,3.56c2.55-.61,7.1.44,10.4.69C170.67,324.16,171.82,321.86,167.87,321.23Z" transform="translate(-81.15 -285.54)"/><path class="cls-5" d="M185.74,349.32c-.7.85-1.35,2.85-2.43,5l-.3.56a16.45,16.45,0,0,1-1,1.67,11,11,0,0,1-3.75,3.47,9.17,9.17,0,0,1-7,.35,7.8,7.8,0,0,1-.72-.31c-3-1.52-5.7-9.17-5.7-9.17.82.18,1.7.32,2.62.44C173.72,352.09,182,351.51,185.74,349.32Z" transform="translate(-81.15 -285.54)"/><path class="cls-9" d="M185.74,349.32c-.76.93-.56,1.41-1.84,3.73-3.75,3.07-11.67,2.76-14,1.44-1.5-.85-1.65-1.4-2.44-3.2C173.72,352.09,182,351.51,185.74,349.32Z" transform="translate(-81.15 -285.54)"/><path class="cls-10" d="M148.35,342.23l5.3-.06c-.12-2-.16-4.05-.15-6.05,0-4.23.27-8.34.46-12h-.37l-6.77.19a40.43,40.43,0,0,0,.16,8.54C147.27,335.77,147.74,339,148.35,342.23Z" transform="translate(-81.15 -285.54)"/><path class="cls-4" d="M149.58,335.38c-1.49-3-4.55-3.6-6.52-1.89-2.48,2.16-1,6.05.24,8.41a16.81,16.81,0,0,0,6.31,6.3C156.59,351.72,149.58,335.38,149.58,335.38Z" transform="translate(-81.15 -285.54)"/><path class="cls-5" d="M149.52,337.85c-2.1-4.74-4.47-5.66-6.33-2-1.28,2.55,1.19,5.11,2.51,7-1-1.67-.93-6.86,1.59-4.51,2.16,2,3.46,6.13,4.14,6A42.87,42.87,0,0,0,149.52,337.85Z" transform="translate(-81.15 -285.54)"/><path class="cls-11" d="M188.39,337.7c-9.35,3.67-20.59,3.26-29.79.38-.88-.28-2.82-1-5.1-2-.49-.21-1-.43-1.51-.67a53.94,53.94,0,0,1-5-2.58,40.43,40.43,0,0,1-.16-8.54l6.77-.19a62.81,62.81,0,0,1,2.32-8.21,78.76,78.76,0,0,1,28-2.31C185.49,319,187.22,329.27,188.39,337.7Z" transform="translate(-81.15 -285.54)"/><path class="cls-12" d="M144.1,330.83c8.25,2.84,17.05,2.81,25.75,2.79a57.31,57.31,0,0,0,7.17-.48,75.83,75.83,0,0,0,20.83-5.63c6.5-3.12,6.08-5.84-2.64-8.4a4,4,0,0,1-1.81-1.23c-1.72-1.92-2.68-5.44-3.67-7.58a23.26,23.26,0,0,0-8.88-10.44,20.38,20.38,0,0,0-4.58-2.08,27.71,27.71,0,0,0-12.8-.69c-.85.13-1.72.3-2.6.5s-1.52.37-2.29.58a16.78,16.78,0,0,0-6.07,3.23l-.46.39-.71.65q-.75.74-1.44,1.56C145.19,309.64,142.53,318.82,144.1,330.83Z" transform="translate(-81.15 -285.54)"/><path class="cls-13" d="M144.1,330.83c8.25,2.84,17.05,2.81,25.75,2.79a57.31,57.31,0,0,0,7.17-.48,75.83,75.83,0,0,0,20.83-5.63c6.5-3.12,6.08-5.84-2.64-8.4a4,4,0,0,1-1.81-1.23,11.25,11.25,0,0,1-3.49,3.46,1.13,1.13,0,0,1-.21.12c-.58.32-1.18.61-1.79.88a30.76,30.76,0,0,1-9.07,2.37l-1.7.2-2.11.24a59.23,59.23,0,0,1-13.08.41c-.74-.07-1.47-.18-2.19-.32a25.15,25.15,0,0,1-2.94-.71l-.31-.1c-6.1-2.07-8.35-8.54-7.5-14.68a17.32,17.32,0,0,1,1.46-5.07,15.2,15.2,0,0,1,1.1-2c.13-.19.25-.38.39-.56s.36-.5.55-.74l-.46.39-.71.65q-.75.74-1.44,1.56C145.19,309.64,142.53,318.82,144.1,330.83Z" transform="translate(-81.15 -285.54)"/><path class="cls-13" d="M185.56,312.42a42.35,42.35,0,0,1,2.35,9.92c0,.26.08.51.11.77.12.8.24,1.61.37,2.43l2.09-.33c-.13-.81-.24-1.61-.36-2.41l-.21-1.46a42.1,42.1,0,0,0-2.38-9.71,49.87,49.87,0,0,0-6.68-11.77,20.38,20.38,0,0,0-4.58-2.08A46,46,0,0,1,185.56,312.42Z" transform="translate(-81.15 -285.54)"/><path class="cls-13" d="M172.58,314.53A44.23,44.23,0,0,1,175,325.15v.07c.12.8.24,1.6.37,2.43l2.09-.33c-.13-.82-.25-1.62-.36-2.41h0a44.07,44.07,0,0,0-13.67-27.82c-.85.13-1.72.3-2.6.5A44.39,44.39,0,0,1,172.58,314.53Z" transform="translate(-81.15 -285.54)"/><path class="cls-13" d="M149.9,304c.2.23.39.45.57.68s.59.73.87,1.1A47.45,47.45,0,0,1,157.66,317a37.5,37.5,0,0,1,2.1,8.29c.12.75.22,1.5.34,2.26a.78.78,0,0,0,0,.14q.16,1.2.36,2.43l2.09-.33-.12-.79c-.08-.55-.16-1.08-.24-1.62s-.17-1.18-.26-1.77a40.65,40.65,0,0,0-2.33-9.4,49,49,0,0,0-7.85-13.22l-.2-.24-.23-.26Q150.59,303.18,149.9,304Z" transform="translate(-81.15 -285.54)"/><path class="cls-14" d="M144.1,330.83c8.25,2.84,17.05,2.81,25.75,2.79a57.31,57.31,0,0,0,7.17-.48A39.42,39.42,0,0,1,162.45,329c-.81-.45-1.6-.93-2.35-1.45a21.63,21.63,0,0,1-3.59-3.07,20.37,20.37,0,0,1-5.35-14.35,42.25,42.25,0,0,1,.18-4.3,23.68,23.68,0,0,1,.43-2.84c.06-.27.12-.54.19-.8l.09-.35-.71.65q-.75.74-1.44,1.56C145.19,309.64,142.53,318.82,144.1,330.83Z" transform="translate(-81.15 -285.54)"/><polygon class="cls-9" points="85.85 354.91 93.75 359.45 82.91 359.45 84.95 354.91 85.85 354.91"/><polygon class="cls-9" points="44.97 354.74 39.7 359.62 48.36 359.62 47.63 354.91 44.97 354.74"/><path class="cls-15" d="M169,641.57a10.47,10.47,0,0,1-3.88,1.15c-.34-.45-.29-51.52-.49-91.77,0-8.34-.09-16.22-.16-23.08,0-3.17-.06-6.12-.1-8.8v0c-.13-8.77-.3-14.67-.53-15.8,0,0,0,0,0-.06a.36.36,0,0,0,0-.11,3.87,3.87,0,0,0-.56-1.25.43.43,0,0,0-.11-.12c-.14-.15-4.21,9.15-9.78,27.15a659.66,659.66,0,0,0-18.48,77.59h0c-2,11.25-4,23.35-5.69,36.27l-3.87-1.65c3.36-40.74,5.48-82.77,8.22-115.8.86-10.42,1.79-19.94,2.83-28.25.08-.65.16-1.28.24-1.9,1.6-12.18,3.47-21.56,5.83-27.05l38.48-2.4c2.57,4.28,4.1,11.28,4.82,20.09.15,1.78.26,3.64.34,5.56l0,.65,0,.85C187.7,539.11,172.59,621.63,169,641.57Z" transform="translate(-81.15 -285.54)"/><path class="cls-16" d="M186.21,491.23v.7l-.15,0a14.62,14.62,0,0,1-1.82.24c-3.29.3-9.74.47-16.87.67L163,493c-2.86.08-5.76.18-8.54.3-8.31.34-15.58.86-17.91,1.81,0,0,0-4.65,0-11.85,0-12-.25-31.19-1.12-47.69,2.21-.29,14.44-6.16,14.24-36.63l1.49,0c9.63-.14,23.73,0,31.66.14.14,7.94-1.1,16.27-1.1,24.59,0,4.06-.5,8.35,1.19,12,.37.81.72,1.48,1,2.07-1.16,10,.73,17.89,1.7,34.2q.18,2.86.3,6.1c.09,2.36.16,4.88.2,7.58C186.21,487.39,186.22,489.27,186.21,491.23Z" transform="translate(-81.15 -285.54)"/><path class="cls-16" d="M154.3,417.81l-5-.45a52.25,52.25,0,0,0,0-9c-1.06-13.32-6.47-26.2-10.21-33.72,1.76-.51,3.46-.95,4.91-1.33a112.26,112.26,0,0,1,9,25.62A65,65,0,0,1,154.3,417.81Z" transform="translate(-81.15 -285.54)"/><path class="cls-16" d="M184.75,379.31c-.18,5.47-.89,12.75-1.85,22.19l-.06.52c-.44,4.33-.89,8.8-1.31,13.42l-5-.45c.44-4.84.92-9.5,1.38-14,.07-.67.13-1.33.2-2,.74-7.25,1.35-13.54,1.58-18.62.09-2,.1-3.67.07-5C181.13,376.42,182.89,377.8,184.75,379.31Z" transform="translate(-81.15 -285.54)"/><polygon class="cls-17" points="76.89 119.66 95.39 119.66 94.13 122.3 76.89 122.3 76.89 119.66"/><path class="cls-17" d="M178.73,488.37c-1.14,2.33-8.17,9.45-8.8,12.24-.28,1.2-2.72,29.3-5.34,50.34-.06-12.18-.14-23.38-.26-31.88v0c0-7.94-.1-14.06-.53-15.8a.14.14,0,0,0,0-.06.27.27,0,0,0,0-.12,2.84,2.84,0,0,0-.55-1.24.43.43,0,0,0-.11-.12c-.29-.3-16,36.57-28.26,104.74,5.92-36,17.78-101,20-105.55-1.8-1.73-4.34-1.93-6.12-3.06C153.42,497.62,175.82,491.15,178.73,488.37Z" transform="translate(-81.15 -285.54)"/><path class="cls-17" d="M151.31,396.86a1.27,1.27,0,0,1,0,.2C151.54,396.62,152,396.1,151.31,396.86Z" transform="translate(-81.15 -285.54)"/><path class="cls-16" d="M163,493c-2.86.08-5.76.18-8.54.3-8.31.34-16.42,7.75-18.74,8.7,0,0,.87-11.54.85-18.74,0-12-.25-31.19-1.12-47.69,2.21-.29,14.44-6.16,14.24-36.63l1.49,0c-.43,7.95-.05,15.66-.93,23.67-.92,8.49-5,14.45-7.37,22.27-2.48,8.08-.2,35.15.39,39.42.83,6,2.36,4.7,7.41,5.26C153.68,489.89,159.91,490.9,163,493Z" transform="translate(-81.15 -285.54)"/><path class="cls-12" d="M186.21,491.23v.7l-.15,0,0,.85a71.32,71.32,0,0,1-18.49,7.68l0,.27c-.12,1.65-.16,3.65-.14,5.82.05,6.91.54,15.62-.09,20.81l-2.92.47-.65.1a61.48,61.48,0,0,1-10.47.88,23,23,0,0,1-4-.44c1.05-5.89,1-12.55,2.09-18.35a37,37,0,0,0-5.83.78c-.48,5-3,11.08-4.87,15.72h-.21c-2.34-.36-4.66-.81-7-1.3-4.31-.9-8.6-1.92-12.94-2.67,3.2-6,13-25,13-25l1.28-.25,1.49-.29.28-.06c4.39-.87,10.87-2.17,17.87-3.65,11.22-2.38,23.77-5.23,31.22-7.55l.49-.16C186.21,487.39,186.22,489.27,186.21,491.23Z" transform="translate(-81.15 -285.54)"/><path class="cls-13" d="M167.44,506.59c.05,6.91.54,15.62-.09,20.81l-3.57.57c-4.67.69-9.93,1.37-14.5.44,1.05-5.89,1-12.55,2.09-18.35a37,37,0,0,0-5.83.78c-.48,5-3,11.08-4.87,15.72h-.21c-6.69-1-13.24-2.81-19.91-4,3.2-6,13-25,13-25h0l-6.85,21.8,12.41,2.9,5.77-15,8.44-.86,1.2,18.64h11.17l1.89-24.24C167.46,502.42,167.42,504.42,167.44,506.59Z" transform="translate(-81.15 -285.54)"/><path class="cls-13" d="M186.21,491.93l-.15,0,0,.85a71.32,71.32,0,0,1-18.49,7.68l16.64-8.29,1.79-.89.18-.09Z" transform="translate(-81.15 -285.54)"/><polygon class="cls-18" points="51.48 224.06 53.68 213.78 56.22 213.78 53.68 224.87 51.48 224.06"/><polygon class="cls-18" points="55.16 228.81 57.37 218.53 59.91 218.53 57.37 229.61 55.16 228.81"/><polygon class="cls-18" points="76.54 221.61 76.05 211.22 77.85 210.85 78.26 222.08 76.54 221.61"/><polygon class="cls-18" points="80.09 225.73 79.61 215.34 81.4 214.97 81.81 226.2 80.09 225.73"/><polygon class="cls-13" points="44.12 234.61 49.55 221.69 60.67 222.8 57.96 238.56 44.12 234.61"/><polygon class="cls-13" points="70.55 241.2 74.59 220.32 84.2 218.53 84.53 239.47 70.55 241.2"/><path class="cls-4" d="M151.79,424.81c-1.65,0-7.52-.43-10.41,1-2.51,1.24-6.23,4.45-7.53,6.87,3.47-.14,7-.74,10.59-.74,2.53,0,8.35-1.32,9.8-.79Z" transform="translate(-81.15 -285.54)"/><path class="cls-3" d="M185.15,436c-20.72,9.5-46.63,21.89-67.55,16.54-.86-.22-1.7-.47-2.53-.75l0,0-.25-.1,0,0a7.11,7.11,0,0,1-3.78-6,10.46,10.46,0,0,1,0-1.12c.26-5,4.18-10.65,8.58-12.1a27.33,27.33,0,0,1,8.57-1.19h1.69l1.52.05,1.52.07.66,0c2.49.12,5,.25,7.36.15,2.56-.11,8.85-.31,15.89-.62l.45,0,7-.33,1.12-.06a60.31,60.31,0,0,0,17.22-3.24C184.45,430.14,185.62,434,185.15,436Z" transform="translate(-81.15 -285.54)"/><path class="cls-3" d="M138.82,409.32a5,5,0,0,0-.7,1.26c-1.38,3.27-3.32,11.46-6.13,19.62-.27.78-.55,1.56-.83,2.34-4,11-9.73,21-17.83,17.85-1.92-.75-2.61-3.68-2.85-6.66-.17-2.14-.11-4.32-.11-5.73.08-45.82,14.9-56,20.33-60.18Z" transform="translate(-81.15 -285.54)"/><path class="cls-19" d="M120.83,440.23l0,0,0,0C120.73,440.32,120.73,440.32,120.83,440.23Z" transform="translate(-81.15 -285.54)"/><path class="cls-19" d="M173,430.49c-12.78-.53-24.87,2.89-35.6,4.35l-10.14,6.48c.44-2,1-4.61,3.14-5.48a17.2,17.2,0,0,0-9.51,4.35,24.18,24.18,0,0,1,2.49-3,20.44,20.44,0,0,1,9.5-5.86l.66,0c2.49.12,5,.25,7.36.15l16.34-.64C159.5,430.72,170.92,430.19,173,430.49Z" transform="translate(-81.15 -285.54)"/><path class="cls-19" d="M189.72,415.48c-1.73-4.05-2.17-8.68-2.17-13.18l-.27,1.06a46.18,46.18,0,0,0,5.33,24.22c1.12-.38,2.46-.16,3.61-.56C192.89,424.73,191.28,419.15,189.72,415.48Z" transform="translate(-81.15 -285.54)"/><path class="cls-3" d="M150.29,432.1c17.74,7.61,40,17.64,57,10.45.69-.3,1.38-.62,2.05-1l0,0,.2-.13h0c2.29-1.83,3-4.61,2.7-7.47-.51-5-4.1-10.23-7.83-11.28a19.39,19.39,0,0,0-7.17-.42c-1.49.15-3,.39-4.46.64a57.66,57.66,0,0,1-6.1.8c-2.12.12-7.35.47-13.2.8l-7.09.35a42,42,0,0,1-14.47-1.69C150.51,426.25,149.78,430.14,150.29,432.1Z" transform="translate(-81.15 -285.54)"/><path class="cls-18" d="M275.35,374.81,271.41,423c-1.77,6.34-9.83,35.84-14.3,41.38S243.4,468.49,239,460.2C233.05,449.2,255.72,368.41,275.35,374.81Z" transform="translate(-81.15 -285.54)"/><polygon class="cls-9" points="215.6 353.71 208.02 358.07 218.41 358.07 216.46 353.71 215.6 353.71"/><polygon class="cls-9" points="263.04 353.4 268.08 358.07 261.31 358.07 261.33 353.4 263.04 353.4"/><path class="cls-20" d="M345.44,640.1c-.76.29-1.91.06-3,.7-.54-5.2-3.05-16.87-6.75-29.22h0c-1.24-4.16-2.62-8.58-4.11-13.17h0c-11.41-35.15-29.07-80.14-39.93-92.11l-.1.11a3.77,3.77,0,0,0-.53,1.2c-1.23,4.33-.7,17.23.64,33.37v0c1.43,17.3,3.78,38.32,5.88,56.46l0,.29c2.62,22.67,1.31,42.35.77,43-2.39-.41-2.94-.28-3.38-.58-4.4-24.12-35.23-143.67-20.34-168.45l44,2.74C327.29,494.77,349.35,587.14,345.44,640.1Z" transform="translate(-81.15 -285.54)"/><path class="cls-21" d="M297.58,597.47l0,.29-.38.65A4.55,4.55,0,0,0,297.58,597.47Z" transform="translate(-81.15 -285.54)"/><path class="cls-21" d="M291.7,541c-3.1-18.34-6.23-34.28-6.56-35.72-.6-2.68-6.29-16.07-7.39-18.3,2.79,2.66,12.52,11.33,13.82,12.15,4,2.56,9.39,3.28,13.9,3.48-1.71,1.08-4.15,1.28-5.87,2.94,2.14,4.32,26.35,58.38,32,92.88-11.41-35.15-29.07-80.14-39.93-92.11l-.1.11a2.66,2.66,0,0,0-.53,1.2C289.83,511.94,290.36,524.84,291.7,541Z" transform="translate(-81.15 -285.54)"/><path class="cls-22" d="M321.8,485.11c-.32,0-12.85.5-26.21.2-1.07,0-2.14,0-3.21-.08-2.14-.07-4.28-.16-6.37-.28-6.7-.39-12.9-1.09-17.08-2.29.9-2.22,13.61-47.38,3.48-54.16-3.24-2.18-3.89-12.37-5.49-18.71-3.4-13.51-4.89-23.88-3.05-25.54a68.84,68.84,0,0,1,12.73-9.18c2.69-1.52,5.18-2.75,7.59-4.08l27.58-4.2a9.23,9.23,0,0,0,3.23,1.85c4.55,1.61,11.16,1.42,17.1,4.68C351.32,383.9,321.85,485,321.8,485.11Z" transform="translate(-81.15 -285.54)"/><path class="cls-4" d="M281.66,369.34c-5.66,8.53-3,15,3.46,18.07,10.09,4.92,35.15-17,35.31-17.52-16.54-5.63-22.89-42.65-20.68-44.33l-24.4,18.15C277.22,347.16,283.56,366.46,281.66,369.34Z" transform="translate(-81.15 -285.54)"/><path class="cls-4" d="M266.31,328.17c-1.41-3.14-3.79-3.9-5.13-2.2-1.67,2.15-.21,6.25,1,8.75a19.62,19.62,0,0,0,5.39,6.79C273.18,345.43,266.31,328.17,266.31,328.17Z" transform="translate(-81.15 -285.54)"/><path class="cls-5" d="M266.5,330.74c-2.05-5-3.93-6.05-5-2.3-.73,2.61,1.39,5.37,2.57,7.4-.91-1.77-1.35-7.16.78-4.63,1.83,2.16,3.21,6.5,3.71,6.38A64.57,64.57,0,0,0,266.5,330.74Z" transform="translate(-81.15 -285.54)"/><path class="cls-4" d="M301.55,350.82c-.49.42-1,.82-1.5,1.21a35.59,35.59,0,0,1-19.67,7.83c-.62.05-1.25.07-1.88.09-12.06.24-11.21-6.38-12.51-15.54-.26-1.83-.55-4.39-.85-7.35-.12-1.21-.24-2.49-.36-3.81-.42-4.84-.81-10.26-1-15.13-.29-6.65-.26-12.27.44-14,1.76-4.4,4.45-5.77,9.05-7.46a92,92,0,0,1,9.63-2.44,12.82,12.82,0,0,1,6,3.89,41.08,41.08,0,0,1,5.91,8.23c.89,1.57,1.75,3.23,2.56,5,1,2.21,2,4.53,2.86,6.9s1.59,4.62,2.22,6.94C305.51,336.31,306,347.09,301.55,350.82Z" transform="translate(-81.15 -285.54)"/><path class="cls-5" d="M275.23,341c-.77-8-.11-12.38-1.34-16.32,0,0-.29,15.17-.05,17.67,3,.65,5.73,1.24,7.74-1.29C279.21,341.84,277.21,342.43,275.23,341Z" transform="translate(-81.15 -285.54)"/><path class="cls-6" d="M267.23,316.22a20.3,20.3,0,0,0-7.07,3.26l2.69,3c1.71-1.29,6.31-1.8,9.27-2.6C271.77,317.81,271,315.53,267.23,316.22Z" transform="translate(-81.15 -285.54)"/><path class="cls-7" d="M290.79,323.28c.48,2.42-.34,4.63-1.84,4.93a2.23,2.23,0,0,1-1.84-.59,5.79,5.79,0,0,1-1.74-3.26c-.48-2.42.34-4.63,1.84-4.93a1.86,1.86,0,0,1,.33,0C288.93,319.39,290.34,321,290.79,323.28Z" transform="translate(-81.15 -285.54)"/><path class="cls-8" d="M289.28,322.65c.48,2.43-.34,4.63-1.84,4.93a1.86,1.86,0,0,1-.33,0,5.79,5.79,0,0,1-1.74-3.26c-.48-2.42.34-4.63,1.84-4.93a1.86,1.86,0,0,1,.33,0A5.79,5.79,0,0,1,289.28,322.65Z" transform="translate(-81.15 -285.54)"/><path class="cls-9" d="M290,323.44a.69.69,0,1,1-.82-.65A.75.75,0,0,1,290,323.44Z" transform="translate(-81.15 -285.54)"/><path class="cls-5" d="M292.89,322.71a8.67,8.67,0,0,0-10.92.19,5.49,5.49,0,0,1,10.92-.19Z" transform="translate(-81.15 -285.54)"/><path class="cls-7" d="M271.18,326.91c.48,2.42-.35,4.63-1.84,4.93a2.22,2.22,0,0,1-1.85-.6,5.77,5.77,0,0,1-1.73-3.25c-.48-2.42.34-4.64,1.84-4.93a1.24,1.24,0,0,1,.33,0C269.32,323,270.73,324.66,271.18,326.91Z" transform="translate(-81.15 -285.54)"/><path class="cls-8" d="M269.67,326.28c.48,2.42-.35,4.63-1.84,4.93a2,2,0,0,1-.34,0,5.77,5.77,0,0,1-1.73-3.25c-.48-2.42.34-4.64,1.84-4.93a1.24,1.24,0,0,1,.33,0A5.79,5.79,0,0,1,269.67,326.28Z" transform="translate(-81.15 -285.54)"/><path class="cls-9" d="M270.35,327.07a.75.75,0,0,1-.51.92.81.81,0,0,1-.31-1.57A.75.75,0,0,1,270.35,327.07Z" transform="translate(-81.15 -285.54)"/><path class="cls-5" d="M273.28,326.34a8.64,8.64,0,0,0-10.92.19,5.49,5.49,0,0,1,10.92-.19Z" transform="translate(-81.15 -285.54)"/><path class="cls-6" d="M282,311.7c3-1.2,6.83-1.34,9.36-1.48l.78,3.66c-2.77,0-7.19,2.15-10.52,3.18C279.81,315.37,278.09,313.27,282,311.7Z" transform="translate(-81.15 -285.54)"/><path class="cls-23" d="M267.71,357.38c3.7,8.81,15.89,8.65,21.05,7.61a11.05,11.05,0,0,0,1.68-.45c3.08-1.18,10.05-3,14.15-10,3.69-6.34.54-27.09-.27-30l-6.75-10.32-1.09-1.67c-.21,0-.36-.22-.37,0,3.25,5.42,9.18,47.29-12.12,40.59a8.94,8.94,0,0,0-2.78.15c1,3.18-3.22,3.65-5.6,2.46-6.79-3.39-8.84-9.2-10.54-19.1a56.66,56.66,0,0,0,.16,11.79A38.45,38.45,0,0,0,267.71,357.38Z" transform="translate(-81.15 -285.54)"/><path class="cls-5" d="M272.17,346.84a38.3,38.3,0,0,1,3,3.33l.37.38a16,16,0,0,0,1.21,1.08,9.88,9.88,0,0,0,3.92,1.93,9.22,9.22,0,0,0,6.17-1.07c.2-.12.39-.25.57-.38,2.36-1.75,3.28-8.13,3.28-8.13-.68.29-1.42.57-2.21.84C283.19,346.65,275.81,347.8,272.17,346.84Z" transform="translate(-81.15 -285.54)"/><path class="cls-9" d="M272.17,346.84c.83.56.75,1,2.29,2.5,3.85,1.63,10.72-.13,12.52-1.59,1.16-.95,1.18-1.4,1.54-2.93C283.19,346.65,275.81,347.8,272.17,346.84Z" transform="translate(-81.15 -285.54)"/><path class="cls-23" d="M267.3,348.19c.85-1,7-4.54,8.72-4.66,3-.22,15.17-2.79,17.52-1.58,1.3.66,7,4,7.2,3.76l-1.62,3.2c-5.4-4.08-6.2-5.15-17.67-3.48-11.17,1.62-10.51,5.6-14.53,6.79C267.41,351.43,266.66,348.9,267.3,348.19Z" transform="translate(-81.15 -285.54)"/><path class="cls-10" d="M288.76,365a11.05,11.05,0,0,0,1.68-.45c3.08-1.18,10.05-3,14.15-10,3.69-6.34,3.19-35.42-.24-44.62L297,311.38c3.41,11.84,8.45,28.43,3.27,40.24a30,30,0,0,1-7.8,10.36C291.28,363,290,364,288.76,365Z" transform="translate(-81.15 -285.54)"/><path class="cls-14" d="M306,317.1a15.55,15.55,0,0,1-2.36,6.33c-.37.58-.76,1.15-1.2,1.71A18.59,18.59,0,0,1,301,326.8a20.67,20.67,0,0,1-1.73,1.64,23.38,23.38,0,0,1-5,3.29c-9.17,4.46-18,4.88-27.66,2.1-.51-.15-1.12-.34-1.8-.58-.42-4.84-.81-10.26-1-15.13l31-11.79,4.06-1.54C304.61,308,306.55,312.57,306,317.1Z" transform="translate(-81.15 -285.54)"/><path class="cls-4" d="M302.39,321.11c-.18-3.5,2.3-5.67,5-5.13,3.4.69,4.1,5,4.15,7.84a17.75,17.75,0,0,1-2.52,9.07C304.45,339.75,302.39,321.11,302.39,321.11Z" transform="translate(-81.15 -285.54)"/><path class="cls-5" d="M303.73,323.35c-.54-5.45,1.16-7.53,4.78-5.12,2.5,1.67,1.56,5.31,1.34,7.75,0-2.05-2.71-6.77-3.8-3.31-.94,3,0,7.43-.68,7.65A45,45,0,0,1,303.73,323.35Z" transform="translate(-81.15 -285.54)"/><path class="cls-24" d="M308,312.78c-7.11,5.08-15.58,7.55-23.94,10a58.19,58.19,0,0,1-7,1.58,75.92,75.92,0,0,1-21.61.52c-7.12-1.15-7.5-3.88.15-8.82a4,4,0,0,0,1.39-1.69c1.11-2.34,1-6,1.37-8.33a23.38,23.38,0,0,1,5.57-12.55,21,21,0,0,1,3.8-3.3,27.81,27.81,0,0,1,12.1-4.3c.85-.12,1.73-.2,2.64-.26s1.56-.08,2.36-.09a16.71,16.71,0,0,1,6.75,1.37l.55.25c.29.13.58.27.86.42a19.17,19.17,0,0,1,1.83,1.09C300.88,292.75,306.05,300.81,308,312.78Z" transform="translate(-81.15 -285.54)"/><path class="cls-25" d="M308,312.78c-7.11,5.08-15.58,7.55-23.94,10a58.19,58.19,0,0,1-7,1.58,75.92,75.92,0,0,1-21.61.52c-7.12-1.15-7.5-3.88.15-8.82a4,4,0,0,0,1.39-1.69,11.27,11.27,0,0,0,4.34,2.33l.23.05c.65.14,1.31.25,2,.34a30.75,30.75,0,0,0,9.38-.31l1.69-.29,2.09-.37a59.56,59.56,0,0,0,12.68-3.32c.69-.28,1.36-.59,2-.93a27.43,27.43,0,0,0,2.62-1.52l.26-.19c5.28-3.72,5.6-10.57,3-16.23a17.46,17.46,0,0,0-2.84-4.44,14.27,14.27,0,0,0-1.62-1.59l-.53-.44c-.24-.19-.49-.37-.74-.55l.55.25c.29.13.58.27.86.42a19.17,19.17,0,0,1,1.83,1.09C300.88,292.75,306.05,300.81,308,312.78Z" transform="translate(-81.15 -285.54)"/><path class="cls-25" d="M262.91,306.89a41.77,41.77,0,0,0,.56,10.2c0,.26.07.51.11.77.11.8.23,1.61.34,2.44l-2.1.27c-.11-.81-.23-1.61-.34-2.41l-.21-1.46a42,42,0,0,1-.48-10,50.4,50.4,0,0,1,3.08-13.2,21,21,0,0,1,3.8-3.3A46.06,46.06,0,0,0,262.91,306.89Z" transform="translate(-81.15 -285.54)"/><path class="cls-25" d="M276,305.23a44.5,44.5,0,0,0,.66,10.89v.07c.12.8.23,1.61.34,2.44l-2.1.28c-.11-.82-.22-1.62-.34-2.42h0a46.29,46.29,0,0,1-.68-11.46,47.37,47.37,0,0,1,5.91-19.14c.85-.12,1.73-.2,2.64-.26A44.5,44.5,0,0,0,276,305.23Z" transform="translate(-81.15 -285.54)"/><path class="cls-25" d="M294.76,288.67c-.12.27-.24.54-.35.82s-.36.86-.52,1.3a47.61,47.61,0,0,0-2.9,12.52,36.93,36.93,0,0,0,.34,8.56c.09.75.2,1.5.31,2.26a.68.68,0,0,1,0,.14c.12.8.23,1.61.34,2.44l-2.1.28c0-.27-.07-.54-.11-.8-.07-.54-.15-1.08-.23-1.61s-.17-1.19-.25-1.78a40.87,40.87,0,0,1-.43-9.69,48.92,48.92,0,0,1,3.79-14.92l.12-.29c0-.11.1-.21.14-.32A19.17,19.17,0,0,1,294.76,288.67Z" transform="translate(-81.15 -285.54)"/><path class="cls-14" d="M308,312.78c-7.11,5.08-15.58,7.55-23.94,10a58.19,58.19,0,0,1-7,1.58,39.22,39.22,0,0,0,12.79-8.17,23.89,23.89,0,0,0,1.85-2.06,21.21,21.21,0,0,0,2.57-4,20.37,20.37,0,0,0,1.07-15.3c-.43-1.45-.88-2.8-1.39-4.07a24.86,24.86,0,0,0-1.22-2.6c-.13-.25-.27-.49-.41-.73s-.12-.2-.19-.3c.29.13.58.27.86.42a19.17,19.17,0,0,1,1.83,1.09C300.88,292.75,306.05,300.81,308,312.78Z" transform="translate(-81.15 -285.54)"/><path class="cls-18" d="M290.89,374.51l-2.63,1.31c.76,2.65-2.91,6.58-2.69,9.48.1,1.4,1.28,2.24,2.36,3.5,1.74,2,1.54,1.79,4,1.5s2.89.16,3.68-2.1c.72-2,.44-4.92.53-7.11C296.29,377.42,295.47,373.93,290.89,374.51Z" transform="translate(-81.15 -285.54)"/><polygon class="cls-18" points="208.37 100.55 205 179.01 210.96 182.43 216.74 178.22 210.74 100.55 208.37 100.55"/><path class="cls-9" d="M309.32,359.31c-1.08,3.38-5.49,8.08-8.3,10.2a49.53,49.53,0,0,1-10.23,5.32c2.25,2,2.63,6.89,3.18,9.68.7,3.52.13,7.24.26,10.77,10.74-5.54,22.63-14.22,28.74-24.93Z" transform="translate(-81.15 -285.54)"/><path class="cls-9" d="M281.68,367.93s6.35,5.44,9.76,6.9c-2.25,2-2.62,6.89-3.18,9.68-.7,3.52-.13,7.24-.26,10.77-10.73-5.54-10.7-8.83-13.95-18.67Z" transform="translate(-81.15 -285.54)"/><path class="cls-18" d="M325.92,494c-3.42,0-18.25-3.74-31.62-4,1.94-16.23,19.13-112.36,20.7-121.34,4.55,1.61,11.16,1.42,17.1,4.68C351.32,383.9,326,493.92,325.92,494Z" transform="translate(-81.15 -285.54)"/><path class="cls-18" d="M267.64,488.53c.89-2.22,5.29-49-3.2-77.69-3.95-13.36-3-26.71-1.16-28.37a76.46,76.46,0,0,1,14-9.56c2.31,11.94,7.84,101.51,8.86,115.62C279.45,488.14,271.81,489.72,267.64,488.53Z" transform="translate(-81.15 -285.54)"/><polygon class="cls-26" points="231.63 76.57 244.76 85.45 233.97 92.25 239.28 100.55 215.24 192.7 231.63 76.57"/><polygon class="cls-26" points="198.27 85 185.14 93.88 195.93 100.68 190.62 108.98 204.41 190.85 198.27 85"/><path class="cls-18" d="M362.67,457.26a15,15,0,0,1-5.41,5.86h0l-.24.14-.05,0h0a11.66,11.66,0,0,1-2.52,1.06,9.13,9.13,0,0,1-9.92-2.93c-1.41-1.74-3.16-5.84-5-10.85-.58-1.61-1.16-3.3-1.74-5-3.37-10.13-6.55-21.78-7.59-25.49l-.76-9.28-3.19-38.89C345.9,365.48,368.56,446.27,362.67,457.26Z" transform="translate(-81.15 -285.54)"/><path class="cls-4" d="M278.52,424c-.55,0,.06-1.94,1.79-2.65,1.33-1.45,15.47.76,18,1.82l1.69,5a10.33,10.33,0,0,0-6.93,1.29c-1,.53-8.05,3.91-8.55,3.68-1.8-.82,2.09-3.13,2.14-3.86.09-1.45-.93-1.45-1.87-1.45-2.58,0-14.94-.77-15-1.43C270.4,424.63,277.75,424.11,278.52,424Z" transform="translate(-81.15 -285.54)"/><path class="cls-27" d="M320.43,453.75c-16.49-.86-35.29-1.09-51.49,1.37-10.52,1.6-21.85,3-31.49,5.79l65.68,13.63C314.66,473.88,320.87,463.73,320.43,453.75Z" transform="translate(-81.15 -285.54)"/><path class="cls-28" d="M249.72,360.44c-3.35-1.8-85.61,25.65-85.61,25.65s6.5,21.75,16.63,53c10.59,32.66,26.36,41.48,26.36,41.48,15.89,4.55,101.16,3.63,107.34-12.83C245.88,463.86,249.92,369.8,249.72,360.44Z" transform="translate(-81.15 -285.54)"/><path class="cls-4" d="M290.74,458.5l3.19-4.74a89.36,89.36,0,0,1-8.39-6.53c-2.13-1.67-11.57-.94-14.23-1.4,7.34,7.5-4.7,4.32-6.47,7,1.67,1.22,5.72,3.44,7.41,3.58-.06.19-3.45-1.06-3.52-.7C273.06,459.5,283.94,458.18,290.74,458.5Z" transform="translate(-81.15 -285.54)"/><path class="cls-4" d="M183.81,436.9c-.57-.13-1.37,2.12-1.94,2,1-2.21,2-6.61,1-7.52-.44-.41-1.29,1-1.81,1.57.2-3,2.05-4.17,1.08-6.83a10.43,10.43,0,0,0-5.07,8.75c0,5.61,3.95,11.68,3.95,11.68C183.41,444.21,184.25,440.51,183.81,436.9Z" transform="translate(-81.15 -285.54)"/><polygon class="cls-29" points="99.35 108.32 156.29 91.75 156.85 96.93 99.35 109.74 99.35 108.32"/><polygon class="cls-29" points="105.62 136.51 162.57 119.94 163.12 125.12 105.62 137.93 105.62 136.51"/><polygon class="cls-29" points="102.77 121.52 156.29 104.95 156.29 109.74 102.77 122.94 102.77 121.52"/><path class="cls-18" d="M357.48,463.12h0l-.21.14,0,0c-.72.38-1.45.73-2.2,1.06-18.23,8-43.62.1-63.86-5.86-.73-1.82,0-5.2-.14-7.14,1.89.47,9.34-.1,17.37-.91,9.18-.92,19.11-2.16,22.36-2.53a73.38,73.38,0,0,0,9.8-2.38c1-.28,2.08-.54,3.11-.75,4.76-1,9.4-1,13.09,2.53C358.28,448.81,360.32,460.84,357.48,463.12Z" transform="translate(-81.15 -285.54)"/><path class="cls-21" d="M341.64,446.7a11.18,11.18,0,0,1,2.45,5.71c-.72-.88-3.4-5.21-5.81-4.49-11.41,3.44-31.42,3.23-32.86,2.54h0c9.18-.92,19.11-2.16,22.36-2.53a73.38,73.38,0,0,0,9.8-2.38c-2.93-10.13-5.7-21.78-6.61-25.49l-.66-9.28s8,28.5,10.38,34a1.14,1.14,0,0,1,.06.25c2.29-1,6.28,2,7.58,4.46C347.31,447.85,343.46,446.92,341.64,446.7Z" transform="translate(-81.15 -285.54)"/><path class="cls-30" d="M395.86,369l-7,27.94-.71,4.21c-4.72,2.93-11.54,7-16.51,10.62l-1.41,1.05-.54.41c-1.07.81-2.13,1.6-3.15,2.35-.73.52-1.44,1-2.13,1.49a35.15,35.15,0,0,1-6.07,3.52h0c-10.94,8.3-27,9.89-42.82,9.73-6.7-.07-13.34-.46-19.5-.78-1.11-1.58-1.49-5.26-.92-8.48a53.09,53.09,0,0,0,15.54-3.13c2.43-.85,4.91-1.73,7.28-2.58,6-2.16,11.22-4.54,13.49-4.93,14.5-2.46,29.25-18.52,42.65-29.51C380.87,375.31,387.66,372,395.86,369Z" transform="translate(-81.15 -285.54)"/><path class="cls-31" d="M388.86,396.91l-.71,4.21c-4.72,2.93-11.54,7-16.51,10.62l-1.41,1.05-.54.41c-1.07.81-2.13,1.6-3.15,2.35-.73.52-1.44,1-2.13,1.49a35.15,35.15,0,0,1-6.07,3.52h0c-10.94,8.3-27,9.89-42.82,9.73,10.37-1.53,23.09-3.23,25.63-3.73,3.32-.65,5-3.09,4.79-6.93,5,3,19.37-7.68,22.43-10C370.25,408.19,382.12,401,388.86,396.91Z" transform="translate(-81.15 -285.54)"/><polygon class="cls-9" points="324.6 353.34 316.67 357.91 327.55 357.91 325.5 353.34 324.6 353.34"/><polygon class="cls-9" points="365.62 353.18 370.9 358.07 362.22 358.07 362.95 353.34 365.62 353.18"/><path class="cls-20" d="M403.79,640a10.27,10.27,0,0,0,3.89,1.15c.34-.44.29-51.69.49-92.08.06-12.22.14-23.45.26-32v0c.13-8.8.3-14.71.54-15.85,0,0,0,0,0-.06l0-.11a3.67,3.67,0,0,1,.56-1.25,1.47,1.47,0,0,1,.1-.13c.3-.29,16.07,36.7,28.36,105.1h0q3,16.93,5.72,36.39l3.87-1.65c-6.11-74.11-8.13-152.46-17.17-173.59l-38.61-2.41C376.24,489.46,399.18,614.76,403.79,640Z" transform="translate(-81.15 -285.54)"/><path class="cls-21" d="M395.07,479.42c1.15,2.33,7.11,16.35,7.74,19.16.28,1.2,2.73,29.39,5.36,50.5.06-12.22.14-23.45.26-32v0c-.05-8,.1-14.1.54-15.85,0,0,0,0,0-.06l0-.11a2.73,2.73,0,0,1,.56-1.25,1.47,1.47,0,0,1,.1-.13c.3-.29,16.07,36.7,28.36,105.1-5.94-36.12-17.83-101.37-20.07-105.9,1.8-1.74,4.35-1.94,6.14-3.07-4.72-.21-10.37-1-14.56-3.65C408.18,491.28,398,482.21,395.07,479.42Z" transform="translate(-81.15 -285.54)"/><path class="cls-32" d="M383.35,481.61c4.1,1.17,10.18,1.86,16.77,2.24,2.05.12,4.15.21,6.25.28l3.15.08h.72c12.84.26,24.7-.25,25-.21a45.29,45.29,0,0,1-.16-22.1c-.39-26.39,2.66-59.15,7.08-86.54a74.35,74.35,0,0,0-13.6-5.7,9.22,9.22,0,0,1-3.17-1.81L398.33,372c-2.37,1.32-4.82,2.52-7.45,4a67.65,67.65,0,0,0-12.5,9c-1.81,1.63-.35,11.81,3,25.08,1.56,6.22,2.2,16.23,5.38,18.36C396.7,435.09,384.23,479.43,383.35,481.61Z" transform="translate(-81.15 -285.54)"/><path class="cls-4" d="M433.91,370.9c-.16.49-18.56,9.67-28.47,4.85-6.3-3.07-15.15,3-9.6-5.39a3,3,0,0,0,.33-1.39,11.58,11.58,0,0,0,0-1.17c0-.61-.12-1.3-.23-2.05a77.76,77.76,0,0,0-2.26-9.36c0-.11-.07-.22-.1-.32-.44-1.47-.9-2.91-1.34-4.25a54.31,54.31,0,0,0-2.58-6.62l24-17.82c-.92.7-.33,7.62,1.89,15.79.37,1.4.8,2.83,1.28,4.27.73,2.23,5.75,18.1,6.07,18.74C426.14,372.86,428.22,369,433.91,370.9Z" transform="translate(-81.15 -285.54)"/><path class="cls-5" d="M416.77,347.44a70,70,0,0,0,2.54,6.66c-2.62,4.73-4.46,8.68-9.42,11.48-3.28,1.85-9.34,2.74-13.73,2.22,0-.61-.12-1.3-.23-2.05a77.76,77.76,0,0,0-2.26-9.36c0-.11-.07-.22-.1-.32-.44-1.47-.9-2.91-1.34-4.25l23.26-8.65C415.86,344.57,416.29,346,416.77,347.44Z" transform="translate(-81.15 -285.54)"/><path class="cls-16" d="M421.94,363.83c-1.06,3.32-4.33,4.62-7.09,6.69-3,2.26-6.69,3.79-10,5.23,2.21,2,2.57,6.76,3.12,9.5.69,3.45.13,7.11.26,10.57,10.53-5.44,22.21-13.95,28.2-24.47Z" transform="translate(-81.15 -285.54)"/><path class="cls-16" d="M395.86,369s6.24,5.34,9.59,6.78c-2.21,2-2.58,6.76-3.13,9.5-.69,3.45-.12,7.11-.25,10.57-10.54-5.44-10.5-8.66-13.7-18.32Z" transform="translate(-81.15 -285.54)"/><path class="cls-30" d="M411.84,498c13.12,7.53,26.78-.39,30.13-.42-.43-5.27-1.07-17.86-1.31-33.86-.4-26.38.33-58.14,4.76-85.53.52-3.27-2.53-5-6.28-6.1s-8.32-1.6-10.57-2.4c-.66,3.79-5.28,24.95-9.72,49.17l-8.54,62.81h0c0,.88-.06,1.74-.07,2.56C410.13,490.52,410.59,495.35,411.84,498Z" transform="translate(-81.15 -285.54)"/><path class="cls-30" d="M381.38,498.39c.88-2.18,5.89-59.12-2.44-87.29-3.88-13.12-2.94-26.22-1.14-27.85a75.25,75.25,0,0,1,13.77-9.39c2.26,11.73,8.83,110.67,9.83,124.53C394.82,498,385.47,499.56,381.38,498.39Z" transform="translate(-81.15 -285.54)"/><polygon class="cls-31" points="329.16 196.11 329.16 196.12 352.75 101.27 347.54 93.11 357.99 86.53 358.14 86.44 340.79 78.29 337.7 133.3 329.16 196.11"/><polygon class="cls-31" points="314.71 83.43 299.6 94.71 310.2 101.39 304.99 109.54 318.52 189.91 314.71 83.43"/><path class="cls-4" d="M386.89,333.11c-1.19-3.05-3.42-3.89-4.77-2.34-1.7,2-.5,5.93.51,8.36a18.66,18.66,0,0,0,4.8,6.71C392.59,349.84,386.89,333.11,386.89,333.11Z" transform="translate(-81.15 -285.54)"/><path class="cls-5" d="M386.94,335.57c-1.7-4.86-3.45-5.95-4.63-2.43-.82,2.44,1.06,5.16,2.09,7.15-.78-1.73-.94-6.87,1-4.36,1.63,2.14,2.73,6.33,3.22,6.24A59.78,59.78,0,0,0,386.94,335.57Z" transform="translate(-81.15 -285.54)"/><path class="cls-4" d="M416.26,359.59c9.41-9.67,6.56-22,4.5-30.12a83.21,83.21,0,0,0-3.57-10.9,61.13,61.13,0,0,0-3.73-7.69,34.09,34.09,0,0,0-3.68-5.26,12.18,12.18,0,0,0-5.52-4,86.3,86.3,0,0,0-9.27,1.85c-4.45,1.39-7.07,2.56-9,6.66a12.86,12.86,0,0,0-.67,3.37c-.58,5.54-.49,16-.16,24.57.16,4.24.5,8,.6,10.44C386.94,375.92,411.47,364.52,416.26,359.59Z" transform="translate(-81.15 -285.54)"/><path class="cls-5" d="M394.74,345.76c-.35-7.61.49-11.77-.49-15.57,0,0-1,14.4-.89,16.78,2.81.76,5.38,1.46,7.41-.85C398.48,346.72,396.56,347.18,394.74,345.76Z" transform="translate(-81.15 -285.54)"/><path class="cls-6" d="M388.33,321.79a19.7,19.7,0,0,0-6.87,2.76l2.41,2.94c1.69-1.14,6.09-1.4,8.94-2C392.57,323.53,392,321.33,388.33,321.79Z" transform="translate(-81.15 -285.54)"/><path class="cls-7" d="M410.38,329.64c.34,2.33-.55,4.39-2,4.6a2.1,2.1,0,0,1-1.73-.65,5.58,5.58,0,0,1-1.49-3.18c-.34-2.33.55-4.39,2-4.6a1.77,1.77,0,0,1,.32,0C408.81,325.86,410.07,327.49,410.38,329.64Z" transform="translate(-81.15 -285.54)"/><path class="cls-8" d="M409,329c.34,2.32-.54,4.38-2,4.59l-.32,0a5.58,5.58,0,0,1-1.49-3.18c-.34-2.33.55-4.39,2-4.6a1.77,1.77,0,0,1,.32,0A5.46,5.46,0,0,1,409,329Z" transform="translate(-81.15 -285.54)"/><path class="cls-9" d="M409.58,329.76a.7.7,0,0,1-.53.84.69.69,0,0,1-.74-.65.65.65,0,1,1,1.27-.19Z" transform="translate(-81.15 -285.54)"/><path class="cls-5" d="M412.4,329.2a8.24,8.24,0,0,0-10.38-.34,5.22,5.22,0,0,1,10.38.34Z" transform="translate(-81.15 -285.54)"/><path class="cls-7" d="M391.57,332.15c.34,2.32-.55,4.38-2,4.59a2.1,2.1,0,0,1-1.73-.65,5.55,5.55,0,0,1-1.49-3.18c-.34-2.32.55-4.39,2-4.6a1.61,1.61,0,0,1,.31,0C390,328.36,391.26,330,391.57,332.15Z" transform="translate(-81.15 -285.54)"/><path class="cls-8" d="M390.16,331.48c.34,2.32-.54,4.38-2,4.59a1.72,1.72,0,0,1-.32,0,5.55,5.55,0,0,1-1.49-3.18c-.34-2.32.55-4.39,2-4.6a1.61,1.61,0,0,1,.31,0A5.4,5.4,0,0,1,390.16,331.48Z" transform="translate(-81.15 -285.54)"/><path class="cls-9" d="M390.77,332.26a.65.65,0,1,1-.75-.66A.71.71,0,0,1,390.77,332.26Z" transform="translate(-81.15 -285.54)"/><path class="cls-5" d="M393.59,331.7a7.83,7.83,0,0,0-5.12-2,7.94,7.94,0,0,0-5.26,1.67,5.22,5.22,0,0,1,10.38.34Z" transform="translate(-81.15 -285.54)"/><path class="cls-6" d="M402.58,318.21c2.88-1,6.56-.94,9-.95l.57,3.52c-2.63-.15-6.94,1.69-10.16,2.51C400.33,321.6,398.79,319.52,402.58,318.21Z" transform="translate(-81.15 -285.54)"/><path class="cls-5" d="M390.57,350.5a33.89,33.89,0,0,1,2.45,3.34l.3.38c.3.37.63.74,1,1.1a8.3,8.3,0,0,0,3.23,2.06,6.89,6.89,0,0,0,5.2-.65c.17-.11.34-.21.49-.33,2-1.52,3-7.52,3-7.52-.58.24-1.21.46-1.88.67C399.82,351,393.6,351.63,390.57,350.5Z" transform="translate(-81.15 -285.54)"/><path class="cls-9" d="M390.57,350.5c.69.58.61,1,1.85,2.51,3.18,1.77,9,.51,10.55-.78,1-.82,1-1.25,1.38-2.68C399.82,351,393.6,351.63,390.57,350.5Z" transform="translate(-81.15 -285.54)"/><path class="cls-10" d="M425.54,335.53l-5.24.87c-.24-2-.55-4-.91-6-.77-4.17-1.73-8.19-2.56-11.76l.36-.06,6.72-1a40.83,40.83,0,0,1,1.35,8.47C425.48,329,425.57,332.21,425.54,335.53Z" transform="translate(-81.15 -285.54)"/><path class="cls-4" d="M423.13,329c.95-3.19,3.86-4.35,6.11-3,2.83,1.7,2.09,5.8,1.23,8.35a16.83,16.83,0,0,1-5.13,7.34C419.07,346.35,423.13,329,423.13,329Z" transform="translate(-81.15 -285.54)"/><path class="cls-5" d="M423.62,331.41c1.25-5.06,3.43-6.38,5.91-3.07,1.71,2.29-.28,5.26-1.25,7.37.69-1.82-.29-6.93-2.37-4.17-1.77,2.35-2.33,6.66-3,6.64A43.34,43.34,0,0,1,423.62,331.41Z" transform="translate(-81.15 -285.54)"/><path class="cls-11" d="M385.2,338.09c9.88,2,20.91-.41,29.49-4.87.82-.42,2.61-1.45,4.7-2.83.44-.29.91-.6,1.37-.92a56.27,56.27,0,0,0,4.5-3.43,40.83,40.83,0,0,0-1.35-8.47l-6.72,1a61.13,61.13,0,0,0-3.73-7.69,78.76,78.76,0,0,0-28.1,2.64C384.78,319.06,384.87,329.55,385.2,338.09Z" transform="translate(-81.15 -285.54)"/><path class="cls-16" d="M427.75,323.51c-7.65,4.26-16.35,5.78-24.95,7.29a61.64,61.64,0,0,1-7.17.79,75.9,75.9,0,0,1-21.57-1.91c-7-1.94-7-4.7,1.14-8.76a4.11,4.11,0,0,0,1.57-1.53c1.36-2.2,1.7-5.85,2.29-8.14A23.48,23.48,0,0,1,386,299.38a20.62,20.62,0,0,1,4.16-2.86,27.85,27.85,0,0,1,12.52-2.94c.87,0,1.75,0,2.66,0s1.56.1,2.36.18a16.89,16.89,0,0,1,6.57,2.12l.52.31c.27.16.54.33.81.52a20.42,20.42,0,0,1,1.7,1.28C423,302.78,427.19,311.38,427.75,323.51Z" transform="translate(-81.15 -285.54)"/><path class="cls-25" d="M427.75,323.51c-7.65,4.26-16.35,5.78-24.95,7.29a61.64,61.64,0,0,1-7.17.79,75.9,75.9,0,0,1-21.57-1.91c-7-1.94-7-4.7,1.14-8.76a4.11,4.11,0,0,0,1.57-1.53,11.34,11.34,0,0,0,4.06,2.8l.23.08c.63.22,1.27.4,1.92.56a30.77,30.77,0,0,0,9.37.74l1.72-.1,2.12-.13a59.63,59.63,0,0,0,13-1.89c.71-.21,1.42-.44,2.11-.7a27.26,27.26,0,0,0,2.78-1.22l.28-.16c5.67-3.11,6.75-9.89,4.84-15.82a17.32,17.32,0,0,0-2.33-4.74,14.69,14.69,0,0,0-1.44-1.76c-.15-.17-.31-.34-.48-.5l-.67-.63.52.31c.27.16.54.33.81.52a20.42,20.42,0,0,1,1.7,1.28C423,302.78,427.19,311.38,427.75,323.51Z" transform="translate(-81.15 -285.54)"/><path class="cls-25" d="M383.56,312.62a41.81,41.81,0,0,0-.58,10.21c0,.26,0,.52,0,.78,0,.81.05,1.62.07,2.46l-2.13,0c0-.82,0-1.63-.07-2.44,0-.49,0-1,0-1.48a42.13,42.13,0,0,1,.64-10,50.22,50.22,0,0,1,4.54-12.8,20.62,20.62,0,0,1,4.16-2.86A46.13,46.13,0,0,0,383.56,312.62Z" transform="translate(-81.15 -285.54)"/><path class="cls-25" d="M396.75,312.42a44.53,44.53,0,0,0-.56,10.92v.07c0,.81.05,1.63.07,2.46l-2.12.05c0-.83-.05-1.64-.07-2.44h0a46.53,46.53,0,0,1,.6-11.49,47.62,47.62,0,0,1,8-18.4c.87,0,1.75,0,2.66,0A44.58,44.58,0,0,0,396.75,312.42Z" transform="translate(-81.15 -285.54)"/><path class="cls-25" d="M417.77,298c-.15.26-.3.52-.44.78s-.45.82-.67,1.24a47.83,47.83,0,0,0-4.28,12.14,37.06,37.06,0,0,0-.62,8.56c0,.75,0,1.52.06,2.28,0,.05,0,.1,0,.15,0,.81,0,1.63.06,2.47l-2.12,0c0-.28,0-.54,0-.81,0-.55,0-1.09-.05-1.63s0-1.2-.05-1.8a41.18,41.18,0,0,1,.65-9.7,49.2,49.2,0,0,1,5.44-14.43,1.75,1.75,0,0,1,.16-.27l.17-.3A20.42,20.42,0,0,1,417.77,298Z" transform="translate(-81.15 -285.54)"/><path class="cls-14" d="M427.75,323.51c-7.65,4.26-16.35,5.78-24.95,7.29a61.64,61.64,0,0,1-7.17.79,39.56,39.56,0,0,0,13.66-6.71,24.19,24.19,0,0,0,2.07-1.85,21.33,21.33,0,0,0,3-3.66,20.44,20.44,0,0,0,2.77-15.11,43,43,0,0,0-.93-4.21,23,23,0,0,0-.92-2.73c-.1-.26-.21-.52-.33-.77l-.15-.32c.27.16.54.33.81.52a20.42,20.42,0,0,1,1.7,1.28C423,302.78,427.19,311.38,427.75,323.51Z" transform="translate(-81.15 -285.54)"/><path class="cls-30" d="M436.39,403.4l1.81,6.46.36,1.29.73,2.59a22.7,22.7,0,0,0,1.09,2.56h0c2.43,5.13,7.86,15.22,10.58,22.29l.24.63c.49,1.26,1,2.48,1.46,3.65.34.83.69,1.63,1,2.39a28.21,28.21,0,0,0,3.85,6.84,9.85,9.85,0,0,0,9.75,2.49,12.46,12.46,0,0,0,2.47-.9l.05,0,.23-.12h0c2-1.06.65,1.19,2-1.06a9.47,9.47,0,0,0,1-4c1.46-18.13-15.64-79.75-33.81-73Z" transform="translate(-81.15 -285.54)"/><path class="cls-9" d="M402.13,400.33l.95,1.36c5.9,8.52,37.47,54.61,43.76,74,3.51,10.79,9.51,9.31,14.66,5.09S471,469.52,471,469.52s-35.44-49.1-39.54-79.83S402.13,400.33,402.13,400.33Z" transform="translate(-81.15 -285.54)"/><path class="cls-29" d="M421.65,399.6c-1.51,1.41-5,4.65-7.28,3-2.75-2,.4-6.48,1.17-8.52-2.42,2.73-8.72,9.2-4.51,13.5,2.68,2.72,6,1.07,9.13,1.36,3.54.32,3.79,2.26,5.93,5.18,10.42,14.2,17.38,31.15,25.61,46.73,3.45,6.54,6.68,13.23,9.8,20,5.2-4.25,9.53-11.29,9.53-11.29s-35.44-49.1-39.54-79.83-29.36,10.64-29.36,10.64l.95,1.36c5.73-5.81,14.32-21,21.88-15.78C430.24,389.56,424.76,396.68,421.65,399.6Z" transform="translate(-81.15 -285.54)"/><path class="cls-9" d="M375.22,414.14l1.29,1.07c8,6.66,51.11,42.83,62.52,59.9,6.35,9.48,11.72,6.49,15.53,1.08s6.07-13.37,6.07-13.37S413,424.77,400.58,396.23,375.22,414.14,375.22,414.14Z" transform="translate(-81.15 -285.54)"/><path class="cls-29" d="M393.82,408.34c-1.06,1.76-3.58,5.8-6.19,4.8-3.2-1.23-1.39-6.35-1.22-8.52-1.57,3.26-5.87,11.14-.62,14.18,3.33,1.93,6-.52,9.17-1.07,3.5-.61,4.27,1.19,7.13,3.44,14,11,25.32,25.48,37.53,38.34,5.13,5.41,10.08,11,14.94,16.68,3.84-5.46,6.07-13.37,6.07-13.37S413,424.77,400.58,396.23s-25.36,17.91-25.36,17.91l1.29,1.07c3.92-7.1,8-24,16.73-20.92C399.33,396.43,396,404.72,393.82,408.34Z" transform="translate(-81.15 -285.54)"/><path class="cls-4" d="M395.23,434.48a32,32,0,0,1,4.07,3.27s1.25-.24.37-2.3c2.64-1,6,7.49,10.05,8.07l-3,6.58c-3.57-1.62-8-.22-11-3.5C393.27,444,393.88,437.71,395.23,434.48Z" transform="translate(-81.15 -285.54)"/><path class="cls-30" d="M405.61,450.08c19.78,6.15,44.58,14.33,62.6,6.72.74-.31,1.46-.65,2.17-1l0,0,.21-.13h0a6.89,6.89,0,0,0,2.44-7.11c-.9-4.62-5.14-9.32-9.27-10.1a24.14,24.14,0,0,0-7.82,0c-1.6.21-3.2.52-4.8.83-2.22.42-4.41.85-6.57,1.07s-8,.83-14.29,1.44c-2.51.24-5.13.48-7.69.7a53.05,53.05,0,0,1-15.84-.8C405.47,444.61,404.93,448.28,405.61,450.08Z" transform="translate(-81.15 -285.54)"/><path class="cls-31" d="M430.34,441.74a53.86,53.86,0,0,0,5.71.4c3,0,6,.23,9.05.49,3.37.29,5.4,2,8.44,3.05,0-.14.11-.28.15-.41a4.29,4.29,0,0,0-.43-3.61c2.62.87,5.56,1.07,8.26,2.21A19.43,19.43,0,0,0,456,438.4a9.35,9.35,0,0,0-2.08-1c-.37-4.21-15.72-27.57-15.72-27.57a63.55,63.55,0,0,1,2.18,6.44s5.55,15.29,10.58,22.3a2.65,2.65,0,0,1,.24.63c-2.22.42-4.41.85-6.57,1.07S436.67,441.13,430.34,441.74Z" transform="translate(-81.15 -285.54)"/></g></g></svg>